<svg width="112" height="45" viewBox="0 0 112 45" fill="none" xmlns="http://www.w3.org/2000/svg">
<path d="M38.4508 25.8684C38.2128 25.8416 37.8409 25.6307 37.5782 25.4198C35.0695 22.9642 38.2921 20.1422 42.0184 18.5054V13.8367C42.891 14.3912 43.367 14.4169 43.3928 14.4961L46.2465 11.6741L45.2946 9.24518C53.6466 6.3687 57.0011 5.25969 63.7923 4.12593L62.5746 2.99019L64.5578 1.85742C69.119 3.3625 73.4383 3.75857 72.6966 7.58365C72.882 4.99729 69.6584 3.99424 64.7442 2.63274L63.7923 3.21299L65.6148 4.71806C57.477 6.1162 52.4815 7.7005 46.537 9.768L47.355 11.8801L44.3803 14.809C44.8831 14.9407 50.0878 16.6824 55.5038 12.9099C55.5038 12.9099 55.6109 12.8306 55.6109 12.8039C55.4522 12.5405 55.0814 12.2494 54.6332 11.8533C56.2197 11.9593 57.2469 13.3584 57.0625 14.809H56.3238C56.3673 14.3583 56.2946 13.9039 56.1126 13.4891C51.9103 16.5508 47.0496 16.9993 42.8989 15.5487V19.1629C40.891 19.8758 37.2966 22.0908 37.3234 24.2306C37.4552 25.2584 37.9847 25.6169 38.4597 25.8941" fill="white"/>
<path d="M55.4436 24.9436C50.9478 27.2131 46.6424 29.033 40.0098 29.2974C31.3693 29.1122 30.0217 23.386 34.1169 17.3954C37.984 11.3533 44.106 5.88947 53.8491 2.48522C56.6751 1.49504 60.8268 0.349396 64.8417 0.306818C70.5928 0.253348 76.2051 2.04954 75.8352 7.56486C75.623 11.787 69.5189 17.7509 66.2963 22.0265C64.922 23.9078 64.684 25.1139 67.035 25.0089C75.5625 24.4544 83.3146 21.4987 90.5025 18.4371C85.6408 21.7364 60.5075 34.1642 60.4044 25.6951C60.4302 24.6119 60.9319 23.4771 61.7509 22.2641C62.5442 21.0502 63.6548 19.7827 64.7911 18.4896C66.5085 16.5369 70.7603 11.8553 72.1882 9.06796C74.5928 3.76454 69.2135 3.50016 64.5511 1.86437L62.568 2.99714L63.7856 4.13288C56.9934 5.26664 53.6389 6.37565 45.2879 9.25213L46.2399 11.6811L43.3861 14.5031C43.3068 14.4239 42.8834 14.3981 42.0118 13.8436V18.5143C38.2835 20.1501 35.0708 22.9731 37.5715 25.4288C37.8353 25.6397 38.2062 25.8516 38.4441 25.8773C43.0053 28.4637 55.4614 24.9535 55.4366 24.9535M8.61178 37.9773L6.98262 34.2741L5.25727 37.9773H8.61178ZM3.41893 42.0371H0L5.27513 31.862H9.05996L14.0942 42.0371H10.2964L9.52997 40.2033H4.24092L3.41893 42.0371ZM14.5939 31.862H17.8661V42.0361H14.5939V31.862ZM19.8661 34.9434H23.1383V42.0262H19.8661V34.9434ZM19.8661 31.8739H23.1383V33.9503H19.8661V31.8739ZM31.5616 38.5111C31.5616 37.8853 31.4129 37.3921 31.1194 37.0307C30.8259 36.6693 30.4253 36.4891 29.9295 36.4891C29.3861 36.4891 28.9707 36.6634 28.6831 37.0109C28.3955 37.3585 28.2508 37.8625 28.2508 38.5259C28.2508 39.1517 28.3966 39.6379 28.6871 39.9854C28.9776 40.333 29.3812 40.5053 29.9017 40.5053C30.4124 40.5053 30.8189 40.3271 31.1194 39.9676C31.4198 39.6082 31.5716 39.124 31.5716 38.512M24.9975 31.8531H28.2775V35.9524C28.648 35.5649 29.0942 35.2576 29.5884 35.0494C30.0921 34.8451 30.6313 34.7428 31.1749 34.7484C32.2924 34.7484 33.1908 35.1048 33.869 35.8178C34.5472 36.5307 34.8864 37.4763 34.8864 38.6546C34.8864 39.727 34.5522 40.5855 33.8829 41.2321C33.2136 41.8787 32.3261 42.2025 31.2057 42.2025C30.5949 42.2025 30.0406 42.0916 29.5428 41.8688C29.0466 41.6451 28.6098 41.3083 28.2677 40.8855L28.2399 41.5272C28.222 41.7202 28.1903 41.8876 28.1407 42.0302H24.8606C24.8973 41.8975 24.9261 41.7301 24.9469 41.5321C24.9677 41.3341 24.9786 41.1034 24.9786 40.8459V31.855M42.0634 38.9576C41.0024 38.9576 40.2785 39.0269 39.8938 39.1557C39.5091 39.2844 39.3157 39.5349 39.3157 39.8785C39.3157 40.1122 39.4099 40.2944 39.5963 40.4251C39.7827 40.5558 40.0475 40.6211 40.3896 40.6211C40.9478 40.6211 41.3663 40.4924 41.6439 40.233C41.9216 39.9736 42.0634 39.5824 42.0634 39.0596V38.9487V38.9576ZM42.1328 40.9806C41.8204 41.3905 41.4149 41.6935 40.9171 41.8915C40.4193 42.0896 39.8264 42.1886 39.1085 42.1886C38.099 42.1886 37.3237 42.0104 36.7813 41.6509C36.5229 41.491 36.3115 41.2657 36.1684 40.9979C36.0252 40.7302 35.9555 40.4294 35.9662 40.126C35.9662 39.2299 36.4342 38.5814 37.3703 38.1853C38.3063 37.7892 39.875 37.5912 42.0762 37.5615C42.0762 37.5476 42.0792 37.5219 42.0832 37.4823C42.087 37.4537 42.089 37.4249 42.0891 37.3961C42.0891 37.0337 41.99 36.7624 41.7619 36.5842C41.5338 36.4059 41.2166 36.3168 40.7773 36.3168C40.3826 36.3168 40.0782 36.3822 39.865 36.5129C39.7617 36.5761 39.6741 36.6618 39.6086 36.7637C39.5432 36.8656 39.5017 36.9809 39.4873 37.101H36.459C36.4729 36.3148 36.8556 35.7296 37.5795 35.3464C38.3033 34.9632 39.4288 34.7701 40.931 34.7701C42.3727 34.7701 43.4466 34.9939 44.1506 35.4435C44.8546 35.893 45.2076 36.5723 45.2076 37.4882V41.1004C45.2052 41.2818 45.2155 41.4631 45.2384 41.643C45.2571 41.7752 45.2931 41.9044 45.3454 42.0272H42.3063C42.2463 41.8614 42.2018 41.6903 42.1734 41.5163C42.1456 41.344 42.1318 41.1657 42.1318 40.9816L42.1328 40.9806ZM53.6191 38.5111C53.6191 37.8853 53.4704 37.3921 53.1769 37.0307C52.8834 36.6693 52.4828 36.4891 51.9751 36.4891C51.4337 36.4891 51.0172 36.6634 50.7307 37.0109C50.4441 37.3585 50.2983 37.8625 50.2983 38.5259C50.2983 39.1517 50.4431 39.6379 50.7326 39.9854C51.0222 40.333 51.4267 40.5053 51.9483 40.5053C52.459 40.5053 52.8645 40.3271 53.1659 39.9676C53.4674 39.6082 53.6181 39.124 53.6181 38.512M47.044 31.8531H50.3162V35.9524C50.7059 35.5514 51.1432 35.2593 51.6251 35.0494C52.1287 34.8451 52.668 34.7428 53.2115 34.7484C54.3281 34.7484 55.2264 35.1048 55.9057 35.8178C56.5849 36.5307 56.923 37.4763 56.923 38.6546C56.923 39.727 56.5879 40.5855 55.9185 41.2321C55.2492 41.8787 54.3618 42.2025 53.2413 42.2025C52.6305 42.2025 52.0762 42.0916 51.5794 41.8688C51.0829 41.6453 50.6458 41.3085 50.3033 40.8855L50.2755 41.5272C50.262 41.6973 50.2321 41.8657 50.1863 42.0302H46.9141C46.9559 41.8667 46.9848 41.7001 47.0004 41.5321C47.0202 41.3311 47.0301 41.1034 47.0301 40.8459V31.855M64.1198 38.9576C63.0588 38.9576 62.335 39.0269 61.9384 39.1557C61.5418 39.2844 61.3603 39.5349 61.3603 39.8785C61.3603 40.1122 61.4545 40.2944 61.6409 40.4251C61.8273 40.5558 62.0921 40.6211 62.4342 40.6211C62.9914 40.6211 63.4109 40.4924 63.6905 40.233C63.9701 39.9736 64.1069 39.5824 64.1069 39.0596L64.1198 38.9576ZM64.1892 40.9806C63.8769 41.3905 63.4723 41.6935 62.9745 41.8915C62.4768 42.0896 61.8838 42.1886 61.165 42.1886C60.1565 42.1886 59.3801 42.0104 58.8377 41.6509C58.5798 41.4907 58.3687 41.2654 58.226 40.9976C58.0832 40.7298 58.0137 40.4292 58.0246 40.126C58.0246 39.2299 58.4927 38.5814 59.4277 38.1853C60.3628 37.7892 61.9344 37.5912 64.1347 37.5615C64.1347 37.5476 64.1377 37.5219 64.1416 37.4823L64.1476 37.3961C64.1476 37.0337 64.0484 36.7624 63.8204 36.5842C63.5923 36.4059 63.273 36.3168 62.8367 36.3168C62.4401 36.3168 62.1367 36.3822 61.9245 36.5129C61.7123 36.6436 61.5874 36.8396 61.5447 37.101H58.5184C58.5323 36.3148 58.9151 35.7296 59.6359 35.3464C60.3568 34.9632 61.4862 34.7701 62.9874 34.7701C64.4292 34.7701 65.5021 34.9939 66.2071 35.4435C66.9121 35.893 67.2641 36.5723 67.2641 37.4882V41.1004C67.2616 41.2817 67.2715 41.463 67.2938 41.643C67.3132 41.7751 67.3492 41.9041 67.4009 42.0272H64.3608C64.3005 41.8614 64.2561 41.6904 64.2279 41.5163C64.2004 41.3394 64.1864 41.1606 64.1863 40.9816L64.1892 40.9806ZM77.4515 38.0694V36.8812H81.738V40.6241C81.0796 41.1469 80.4014 41.54 79.7023 41.8044C79.0146 42.0664 78.2847 42.2006 77.5486 42.2005C76.5551 42.2005 75.6528 41.9886 74.8397 41.5628C74.0473 41.1572 73.4035 40.5119 73.0003 39.7191C72.5838 38.9151 72.3796 38.016 72.3796 37.0228C72.3723 36.0701 72.584 35.1283 72.9983 34.2701C73.4118 33.4185 73.9899 32.7848 74.7752 32.3709C75.5605 31.957 76.4381 31.7511 77.4445 31.7511C78.1763 31.7511 78.8387 31.8699 79.4277 32.1075C80.0167 32.3452 80.4837 32.6749 80.8198 33.0977C81.156 33.5205 81.4108 34.0731 81.5833 34.7543L80.3706 35.085C80.2189 34.5701 80.0295 34.1641 79.8054 33.8701C79.5814 33.576 79.2601 33.3373 78.8407 33.1601C78.4212 32.9829 77.9611 32.8928 77.4495 32.8928C76.8387 32.8928 76.3112 32.9858 75.8659 33.172C75.4207 33.3581 75.0608 33.6047 74.7871 33.9087C74.5185 34.1992 74.3027 34.5343 74.1496 34.8989C73.8884 35.547 73.7576 36.2401 73.7648 36.9386C73.7648 37.8427 73.9185 38.5982 74.2289 39.2161C74.5183 39.8045 74.9945 40.2807 75.5833 40.5706C76.1681 40.864 76.8139 41.0157 77.4683 41.0132C78.05 41.0131 78.6261 40.899 79.1639 40.6776C79.7142 40.4538 80.1327 40.2152 80.4182 39.9607V38.0496H77.4485M83.5397 42.0262V34.7008H84.6602V35.8128C84.9576 35.294 85.2115 34.9513 85.4534 34.787C85.6954 34.6226 85.9631 34.5394 86.2536 34.5394C86.6741 34.5394 87.1014 34.6711 87.5357 34.9355L87.1014 36.0861C86.8271 35.9172 86.5123 35.8252 86.1902 35.8197C85.9252 35.8171 85.667 35.9028 85.4564 36.0633C85.2412 36.2277 85.0865 36.4544 84.9933 36.7426C84.8509 37.2121 84.781 37.7006 84.7861 38.1912V42.0252H83.5367M89.3057 38.3675C89.3057 39.3052 89.5109 40.0072 89.9205 40.4736C90.1091 40.6984 90.3458 40.8781 90.6131 40.9994C90.8805 41.1207 91.1717 41.1806 91.4653 41.1747C91.7579 41.1798 92.048 41.1192 92.314 40.9973C92.58 40.8755 92.8153 40.6955 93.0023 40.4706C93.4118 40.0013 93.615 39.2864 93.615 38.3259C93.615 37.4199 93.4108 36.7337 92.9983 36.2663C92.5858 35.7989 92.0761 35.5653 91.4643 35.5653C90.8436 35.5653 90.329 35.798 89.9195 36.2623C89.5099 36.7267 89.3047 37.4278 89.3047 38.3665M88.0216 38.3645C88.0216 37.008 88.4004 36.0059 89.1559 35.3524C89.7856 34.8107 90.5561 34.5404 91.4623 34.5404C92.4718 34.5404 93.2967 34.8692 93.9363 35.5286C94.5759 36.1881 94.8952 37.0991 94.8952 38.2615C94.8952 39.2042 94.7534 39.9448 94.4708 40.4835C94.194 41.0168 93.7632 41.4549 93.2343 41.741C92.6917 42.0391 92.0816 42.1933 91.4623 42.1886C90.4351 42.1886 89.6051 41.8599 88.9834 41.2034C88.3617 40.5469 88.0315 39.5993 88.0315 38.3645M101.358 42.0262V40.9429C101.111 41.3334 100.767 41.6534 100.36 41.8717C99.9524 42.09 99.4953 42.1992 99.033 42.1886C98.5997 42.1886 98.1961 42.1054 97.8233 41.9391C97.4504 41.7727 97.1688 41.5668 96.9884 41.3153C96.8079 41.0637 96.679 40.7588 96.6056 40.3944C96.556 40.1508 96.5293 39.7646 96.5293 39.2359V34.7008H97.7786V38.7586C97.7786 39.4062 97.8034 39.8429 97.854 40.0676C97.9313 40.3944 98.0979 40.6498 98.3498 40.836C98.6016 41.0222 98.917 41.1152 99.2878 41.1152C99.6582 41.1169 100.022 41.014 100.336 40.8182C100.648 40.6442 100.891 40.3704 101.028 40.0409C101.163 39.7121 101.232 39.2369 101.232 38.6101V34.6909H102.479V42.0163H101.358M105.761 38.4071C105.761 39.3497 105.959 40.0468 106.333 40.4865C106.707 40.9261 107.174 41.1628 107.717 41.1628C108.268 41.1628 108.74 40.9291 109.133 40.4617C109.526 39.9944 109.722 39.2735 109.722 38.2833C109.722 37.3496 109.531 36.6495 109.147 36.1861C108.763 35.7227 108.304 35.489 107.773 35.489C107.241 35.489 106.777 35.7366 106.37 36.2317C105.962 36.7267 105.761 37.4446 105.761 38.3883M104.64 44.8116V34.682H105.771V35.6346C106.038 35.2623 106.34 34.984 106.677 34.7989C107.014 34.6137 107.421 34.5216 107.897 34.5216C108.521 34.5216 109.087 34.68 109.555 35.0028C110.023 35.3256 110.394 35.7781 110.638 36.3643C110.882 36.9505 111.005 37.5922 111.005 38.2902C111.005 39.0388 110.87 39.7141 110.601 40.3132C110.331 40.9122 109.94 41.3727 109.429 41.6915C108.917 42.0104 108.376 42.1708 107.812 42.1708C107.398 42.1708 107.027 42.0836 106.697 41.9104C106.367 41.7371 106.098 41.5163 105.888 41.2509V44.8116H104.638" fill="white"/>
</svg>
