<svg width="173" height="173" viewBox="0 0 173 173" fill="none" xmlns="http://www.w3.org/2000/svg">
<path d="M86.5008 79.7633C94.7782 79.7633 102.56 76.5398 108.413 70.6867C114.266 64.8336 117.49 57.0516 117.49 48.7742C117.49 40.4969 114.266 32.7149 108.413 26.8618C102.56 21.0086 94.7782 17.7852 86.5008 17.7852C69.4133 17.7852 55.5117 31.6867 55.5117 48.7742C55.5117 57.0516 58.7352 64.8336 64.5883 70.6867C70.4415 76.5398 78.2235 79.7633 86.5008 79.7633Z" fill="white"/>
<path d="M56.582 48.774C56.582 40.7832 59.694 33.2703 65.3446 27.6197C70.9952 21.969 78.5079 18.8572 86.4989 18.8572C94.4898 18.8572 102.003 21.969 107.653 27.6197C113.304 33.2703 116.416 40.783 116.416 48.774C116.416 65.2703 102.995 78.691 86.4989 78.691C78.5079 78.691 70.9952 75.579 65.3446 69.9284C59.694 64.2777 56.582 56.765 56.582 48.774Z" fill="#5C5AE5"/>
<path d="M86.5003 20.0903C70.6588 20.0903 57.8164 32.9327 57.8164 48.7742C57.8164 64.6157 70.6588 77.4582 86.5003 77.4582C102.342 77.4582 115.184 64.6157 115.184 48.7742C115.184 32.9327 102.342 20.0903 86.5003 20.0903Z" fill="white"/>
<path d="M86.502 67.0963C76.383 67.0963 68.1797 58.8931 68.1797 48.774C68.1797 38.655 76.383 30.4517 86.502 30.4517C96.621 30.4517 104.824 38.655 104.824 48.774C104.824 58.8931 96.6211 67.0963 86.502 67.0963Z" fill="#5C5AE5"/>
<path d="M69.3555 48.7742H86.499V31.6306C77.031 31.6306 69.3555 39.3063 69.3555 48.7742ZM86.499 48.7742V65.9178C95.967 65.9178 103.643 58.2423 103.643 48.7742H86.499Z" fill="white"/>
<path d="M73.0339 31.2925C72.4265 30.7022 71.4877 30.5242 70.6064 31.0707C70.7747 30.6344 70.7059 30.1892 70.6166 29.9435C70.2369 29.2511 70.1043 29.1645 69.7914 28.9019C68.7784 28.0518 67.7122 28.7775 66.9497 29.6863L63.2656 34.0767L69.057 38.9363L72.9421 34.3063C73.8298 33.2484 73.9671 32.1996 73.0339 31.2925ZM87.4582 29.2062L89.4471 23.9346V29.2062H90.9587V21.6562H88.6876L86.6219 27.0619H86.6433L84.5775 21.6562H82.3066V29.2062H83.818V23.9346L85.807 29.2062H87.4582ZM107.781 32.3473L104.935 36.3764L109.347 34.2818L110.515 35.7244L103.571 39.0906L102.2 37.3839L104.931 33.3901L104.915 33.3701L100.441 35.2114L99.0564 33.5156L103.793 27.423L104.961 28.8656L101.995 32.7456L106.528 30.7996L107.781 32.3473Z" fill="#5C5AE5"/>
<path d="M67.7558 30.773C68.0121 30.4674 68.5915 30.4799 68.9641 30.7925C69.3738 31.1363 69.3748 31.6236 69.0996 31.9514L66.9118 34.5587L65.543 33.41L67.7558 30.773ZM71.6484 33.8488L69.3417 36.5977L67.8953 35.384L70.2206 32.6127C70.4832 32.2997 71.0686 32.2086 71.4635 32.5401C71.9105 32.9149 71.9547 33.4837 71.6484 33.8488Z" fill="white"/>
</svg>
