<svg width="110" height="45" viewBox="0 0 110 45" fill="none" xmlns="http://www.w3.org/2000/svg">
<path d="M14.2243 10.1738C6.46546 10.1738 0 13.4399 0 23.2947C0 31.1019 4.34761 36.018 14.4243 36.018C26.2853 36.018 27.0455 28.2648 27.0455 28.2648H21.2985C21.2985 28.2648 20.0664 32.4396 14.0739 32.4396C9.19313 32.4396 5.68283 29.1677 5.68283 24.5822H27.6469V21.7043C27.6469 17.1676 24.7446 10.1738 14.2243 10.1738ZM14.0236 13.8517C18.6695 13.8517 21.8368 16.676 21.8368 20.9091H5.80978C5.80978 16.415 9.94421 13.8517 14.0236 13.8517Z" fill="white"/>
<path d="M27.6439 0.631104V31.0692C27.6439 32.7969 27.5195 35.2229 27.5195 35.2229H33.0009C33.0009 35.2229 33.198 33.4807 33.198 31.8881C33.198 31.8881 35.9062 36.0928 43.2702 36.0928C51.0247 36.0928 56.2921 30.7499 56.2921 23.096C56.2921 15.9752 51.454 10.2482 43.2827 10.2482C35.631 10.2482 33.2534 14.3484 33.2534 14.3484V0.631104H27.6439ZM41.8679 14.0131C47.1339 14.0131 50.4827 17.8915 50.4827 23.096C50.4827 28.677 46.615 32.3279 41.9057 32.3279C36.2852 32.3279 33.2534 27.9728 33.2534 23.1455C33.2534 18.6474 35.9737 14.0131 41.8679 14.0131Z" fill="white"/>
<path d="M69.9134 10.1738C58.241 10.1738 57.4925 16.5158 57.4925 17.5295H63.3023C63.3023 17.5295 63.6068 13.8269 69.5127 13.8269C73.3503 13.8269 76.3242 15.5702 76.3242 18.9211V20.1139H69.5127C60.47 20.1139 55.6895 22.7391 55.6895 28.0663C55.6895 33.3087 60.1064 36.1611 66.0758 36.1611C74.2111 36.1611 76.8316 31.7005 76.8316 31.7005C76.8316 33.4747 76.9692 35.2232 76.9692 35.2232H82.134C82.134 35.2232 81.934 33.056 81.934 31.6695V19.6853C81.934 11.8272 75.5467 10.1738 69.9134 10.1738ZM76.3242 23.6923V25.2827C76.3242 27.357 75.0341 32.5142 67.4404 32.5142C63.2821 32.5142 61.4992 30.4548 61.4992 28.066C61.4992 23.7204 67.5031 23.6923 76.3242 23.6923Z" fill="white"/>
<path d="M78.8047 11.1685H85.3406L94.7209 29.8172L104.079 11.1685H110L92.9538 44.369H86.743L91.6619 35.1138L78.8047 11.1685Z" fill="white"/>
</svg>
