<svg width="111" height="43" viewBox="0 0 111 43" fill="none" xmlns="http://www.w3.org/2000/svg">
<path d="M88.337 13.543V0H91.0982V11.6418C90.3335 12.0263 89.2928 12.7526 88.337 13.543ZM83.5367 17.623C84.3863 16.5976 85.2572 15.5723 86.2979 14.6965V0H83.5367V17.623ZM51.5494 28.389C51.5494 31.999 52.9725 35.4382 55.585 38.0656C58.1762 40.6716 61.5959 42.1242 65.2067 42.1242C66.7359 42.1242 68.3077 41.8038 69.4122 41.2484V38.4714C68.1165 39.0268 66.5448 39.3472 65.2067 39.3472C59.302 39.3472 54.3318 34.3487 54.3318 28.4103V25.9111C54.3318 19.9727 59.3232 14.9742 65.2067 14.9742C68.1378 14.9742 70.8777 16.1063 72.9168 18.157C74.9558 20.2077 76.0815 22.9632 76.0815 25.9111V42.1456H78.8427V25.3771C78.6728 21.8311 77.1648 18.5201 74.616 16.0422C72.0459 13.5643 68.7113 12.1972 65.2067 12.1972C61.6171 12.1972 58.1975 13.6284 55.585 16.2558C52.9937 18.8619 51.5494 22.301 51.5494 25.9324V28.389ZM92.8823 21.7243C94.1355 20.464 95.7497 19.7591 97.3427 19.7591C100.762 19.7591 103.417 22.4506 103.417 25.8684V28.3676C103.417 31.8068 100.741 34.4769 97.3427 34.4769C95.686 34.4769 94.093 33.5584 92.8398 31.9136C91.7354 30.461 91.0132 28.4744 90.907 26.7014L88.6768 29.4784C89.1229 31.5718 90.2061 33.6011 91.7566 35.0109C93.3496 36.4635 95.3462 37.2752 97.3427 37.2752C102.228 37.2752 106.2 33.2807 106.2 28.389V25.8897C106.2 23.5614 105.265 21.3398 103.566 19.6523C101.867 17.9434 99.6579 17.0035 97.3427 17.0035C95.8772 17.0035 93.562 17.5375 90.8008 20.0368C90.0574 20.7844 88.3157 22.536 87.2537 23.775C85.4696 25.7402 82.8995 28.6667 80.6906 31.6359V35.9722C83.1332 32.8107 84.535 31.0378 86.8502 28.3676C88.8892 25.9324 91.438 23.006 92.8823 21.7243ZM27.6332 16.4908V13.2012C25.1269 11.8554 22.4082 11.2573 18.7974 11.2573C15.1016 11.2573 11.597 12.6244 8.94202 15.081C6.26579 17.5589 4.80023 20.8058 4.80023 24.2663V25.1634C4.80023 32.3408 10.5138 38.1724 17.5654 38.1724C23.279 38.1724 25.6366 36.2926 26.2313 35.6945V27.3423H16.8858V30.1192H23.6401V34.306H23.6188C22.748 34.6478 20.9426 35.3741 17.5654 35.3741C14.8892 35.3741 12.3617 34.3274 10.4925 32.4049C8.60218 30.4824 7.58266 27.919 7.58266 25.1421V24.2449C7.58266 18.7124 12.7227 14.0129 18.8186 14.0129C23.0029 14.0343 25.5092 14.7392 27.6332 16.4908ZM47.7687 19.7591C48.8094 19.7591 49.7015 19.93 50.4237 20.2717C50.7635 19.4173 51.1246 18.691 51.6343 17.8366C50.8909 17.3025 49.0855 16.9608 47.7687 16.9608C42.7348 16.9608 38.9328 20.7844 38.9328 25.8684V42.1028H41.694V25.8684C41.694 22.2797 44.1791 19.7591 47.7687 19.7591ZM0 24.2663V25.1634C0 29.9911 1.82664 34.4769 5.11883 37.8306C8.41102 41.1629 12.8289 43 17.5442 43C21.3462 43 24.7021 42.1456 27.5482 40.4367C29.8846 39.0268 30.9254 37.617 31.0103 37.4888V22.536H16.8858V25.313H28.2491V36.6557C26.911 38.0015 23.7463 40.2444 17.5654 40.2444C13.5299 40.2444 9.79162 38.685 7.03043 35.8654C4.29047 33.0671 2.78243 29.2648 2.78243 25.1848V24.2876C2.78243 20.4213 4.50287 16.5763 7.51894 13.7352C10.5987 10.8301 14.6131 9.22802 18.8186 9.22802C22.748 9.22802 25.4667 9.82613 27.6544 11.1719V8.03179C25.3605 7.04918 22.6206 6.62196 18.7974 6.62196C8.60218 6.62196 0 14.6965 0 24.2663ZM74.0212 42.1028V25.8684C74.0212 20.8698 70.1343 16.9608 65.1642 16.9608C62.849 16.9608 60.6401 17.9006 58.9409 19.6095C57.2417 21.3184 56.3071 23.54 56.3071 25.847V28.3462C56.3071 33.1739 60.364 37.2325 65.1429 37.2325C66.4598 37.2325 68.244 36.9121 69.3485 35.9935V33.1098C68.2652 33.9856 66.7147 34.4983 65.1429 34.4983C61.7446 34.4983 59.0683 31.8068 59.0683 28.389V25.8897C59.0683 22.4506 61.7446 19.7804 65.1429 19.7804C68.5626 19.7804 71.2176 22.4719 71.2176 25.8897V42.1242H74.0212V42.1028ZM47.7687 14.9314C49.6378 14.9314 51.2733 15.3373 52.7388 16.1704C53.4185 15.2946 54.1194 14.611 54.6504 14.077C53.0999 12.8808 50.4661 12.1545 47.7899 12.1545C43.9455 12.1545 40.4621 13.543 37.977 16.0849C35.5132 18.5842 34.1538 22.0661 34.1538 25.8897V42.1242H36.915V25.8897C36.8938 19.4386 41.3542 14.9314 47.7687 14.9314ZM106.964 16.2131C104.373 13.6071 100.954 12.1545 97.3427 12.1545C94.709 12.1545 92.0752 13.1371 90.6097 14.1197C87.5936 16.1277 85.1297 18.3279 80.6693 24.1167V28.2822C84.4501 23.3264 88.0184 19.4386 90.7371 17.2812C92.5212 15.85 95.0488 14.9528 97.3427 14.9528C103.247 14.9528 108.218 19.9727 108.218 25.8897V28.389C108.218 31.3154 107.071 34.071 104.989 36.1431C102.929 38.1937 100.21 39.3259 97.3427 39.3259C92.5 39.3259 88.2308 35.9722 87.0838 31.4223L85.1297 33.7933C86.5528 38.5782 91.6929 42.1028 97.3427 42.1028C100.954 42.1028 104.352 40.6503 106.964 38.0442C109.556 35.4168 111 31.999 111 28.3676V25.8684C111 22.2583 109.556 18.8192 106.964 16.2131Z" fill="white"/>
</svg>
