<svg xmlns="http://www.w3.org/2000/svg" width="262" height="262" fill="none"><path fill="#B5B6BA" d="M182 133.313h-40.728v-1.485c0-.228-.117-.571-.117-.799-.117-.228-.234-.343-.234-.571 0-.114.117-.114.117-.342 0-.115-.117-.343-.117-.457 0-.114-.117-.685-.117-1.028 0-.342-.117-1.484-.117-1.827 0-.342-.234-2.169-.234-2.74-.117-.571-.117-1.256-.234-1.941s-.351-2.169-.351-2.398c0-.114 0-.114-.117-.228h-.468c-.117-.228-.234-.457-.351-.571 0-.114 0-.114.117-.114v-.114s.117 0 .117-.114c0-.115-.117-.343-.117-.343l-.117-.342c0-.229-.117-.343-.117-.571l-.234-.457c-.117-.228-.117-.457-.117-.685 0-.228-.118-.457-.235-.685 0-.114-.117-.229-.234-.343-.117-.114-.117-.228-.117-.342v-.571c0-.114-.117-.228 0-.343.117-.114.585-.342 1.054-.571.351-.228.702-.456 1.053-.799.234-.114.468-.342.468-.457l.117-.114s.117-.114.468-.228c.234-.114.585-.343.702-.457.117-.114 0-.114 0-.114 0-.114.117-.114.117-.114.352-.228.703-.457.937-.799.234-.229.351-.457.468-.8 0-.228-.117-.799-.117-1.141 0-.343-.117-1.713-.117-1.941 0-.229-.117-.343 0-.343.117-.114.234 0 .585-.114.468 0 1.053-.114 1.521-.114.352 0 .703-.114 1.054-.229.234-.114.351-.114.351-.342 0-.229-.234-.571-.468-1.256-.234-.571-.703-1.028-1.054-1.484l-1.053-1.028c-.585-.571-1.287-1.256-1.989-1.713-.586-.456-1.405-1.027-2.224-1.598-.468-.343-.936-.685-1.287-1.028-.352-.342-.82-.913-1.054-1.142-.234-.228-.351-.57-.468-.685-.234-.456-.351-.799-.585-1.256-.117-.228-.117-.342-.117-.342 0-.114.117-.685.117-1.142.117-.57.117-.913.234-1.028.117-.228.234-.456.351-.57.117-.343.234-.686.234-1.028 0-.343-.117-.57-.117-.8-.117-.342-.351-.799-.351-.913 0-.114-.117-.799-.117-1.256-.117-.456-.234-.913-.468-1.256a1.219 1.219 0 0 1-.351-.799c0-.342.117-.342-.117-.685-.117-.342-.117-.228-.351-.342-.117-.115-.234-.343-.117-.457 0-.114-.117-.114-.235-.457-.117-.228-.117-.457-.117-.8a.626.626 0 0 0-.351-.57c-.117-.114 0-.114 0-.114.117-.228.117-.457.117-.571l-.351-1.028c-.117-.228-.234-.456-.234-.57 0-.115 0-.115.117-.115.117-.114 0-.114 0-.342v-.457c0-.228-.117-.228-.117-.57 0-.23-.117-.572-.117-.8 0-.114-.117-.114-.117-.228h-.351c0-.115.117-.115.117-.229s.117-.228.117-.342c.117-.115.117-.115.234-.115.117-.114.117-.228.117-.342v-.114c-.117 0-.117-.114-.234-.114s-.117 0-.234-.115c-.117 0-.234 0-.351.115-.117 0-.117-.115-.117-.115l-.117-.114v-.114c0-.114.117-.343.234-.57v-.572c0-.114-.117-.228-.117-.342 0-.115-.117-.343-.234-.343-.117-.114-.234-.114-.351-.114 0-.114-.117-.114-.117-.228-.117-.115-.117 0-.234 0l-.117-.115c0-.114-.117-.114-.234-.114s-.234.114-.234 0 .117-.228.117-.342c0-.114.117-.229.117-.343 0-.228.117-.457.117-.57 0-.115.117-.343.117-.457 0-.114-.117-.114-.234 0s-.117.228-.234.342c-.118.114-.118.228-.118.343 0 .114-.117.342-.117.456 0 .115 0 .229-.117.343 0 .114-.117.343-.117.457 0 .114-.117.228-.117.342 0 .114-.117.228-.117.343 0 .114-.234.456-.234.57 0 .115.117.343.117.457l.234.457c-.117 0-.117 0-.117.114l-.117.114c0 .115-.234.229-.351.229-.117 0-.234.114-.351.114-.117.114-.351.343-.468.343-.117 0 0 .114.117.228s.351.228.351.342c0 .114-.117.114-.117.114 0 .115.117.115.117.115.117.114.234.228.351.228.117 0 .117.114.117.114 0 .114.117.457.117.571v.8c0 .114-.117.114-.117.342 0 .114.117.228.117.228l.117.114v.115s0 .114.117.114v.114c0 .114.117.343.117.343v.342c0 .228 0 .457.117.57.117.23.234.344.351.572.118.114 0 .342 0 .57 0 .343 0 .686.118 1.028 0 .115.117.229.117.343v.685c.117.342.117.457.117.57 0 .115.117.457.117.8.117.114.117.343.117.57 0 .115.117.343.117.458v.685c0 .57-.117 1.027-.117.913-.117-.114 0-.342 0-.57 0-.23-.117-.458-.117-.572 0-.114-.117-.114-.117-.114l-.117-.114-.117-.114v-.229c0-.114 0-.114-.118-.114 0-.114-.117-.228-.117-.342-.117-.114-.117-.343-.117-.457l-.351-.343c-.117-.114-.351-.228-.468-.342l-.351-.343c-.117-.114-.351-.114-.468-.114-.234-.114-.468-.114-.585-.114-.117 0-.351.114-.585.114-.117 0-.234 0-.351.114-.118 0-.235.115-.352.115-.117 0-.234.114-.234.114-.117.114-.117.114-.117.228-.117 0-.117.114-.117.114 0 .114-.117.229-.117.343 0 .114-.117.114-.117.114l-.117.114c0 .114 0 .114-.117.229 0 .114-.117.114-.117.342v.571c0 .343.117.685.234 1.028.117.228.234.456.234.799.117.114.468 1.142.585 1.256.117.114.234.342.352.456.117.229.468.571.468.8.117.114 0 .114.117.114v.343c-.117 0-.117-.115-.234-.115s-.234 0-.351.114c-.118.115-.352.229-.469.343-.117.114-.117.114-.117.343v.57c0 .115-.117.115-.117.115-.117.114-.234.228-.234.342-.117.114-.351.343-.351.571 0 .228 0 .457.117.57 0 .115 0 .23-.117.344 0 .228-.117.456-.234.684-.117.343-.234.686-.234 1.028-.117.114-.117 1.028-.234 1.256 0 .343.117 1.142.117 1.484 0 .229.351 1.256.468 1.599.117.457.351 1.027.351 1.256.117.342.351.799.351 1.142.234.57.468 1.256.468 1.826 0 .115-.117.343-.117.343 0 .114-.117.343-.117.343v.342c0 .114-.351.685-.351.799 0 .114-.117.343-.117.457h.117s.117 0 0 .114c0 .114-.117.229-.234.343-.117.114-.117.228-.117.342 0 .114 0 .229.117.343 0 .114.117.342.117.342v.115c0 .114.117.114.117.228v.114l-.117.114c0 .114 0 .114-.117.229 0 .114 0 .228-.117.342 0 .114-.117.228-.117.343-.117.228-.234.456-.234.799 0 .114-.117.114-.117.114-.117.114-.117.114-.117.228-.117.115 0 .115 0 .229v.114c0 .228-.117.343-.117.571-.117.342-.234.685-.234 1.027-.117.229-.117.571-.117.8v1.712c0 .115-.117.343-.117.457v.228c0 .115.117.229 0 .229 0 .114-.117.114-.117.114l-.234.228c-.117.114 0 .229-.117.343-.117.114 0 .342 0 .342v.115c0 .114-.234.342-.234.57 0 .115 0 .343-.117.457-.117.114-.117.343-.117.343 0 .114.117.228.117.228v.114c0 .114 0 .229.117.343v.114h-.234c-.117 0-.117 0-.117.114v.343c0 .114-.235 1.256-.235 1.484-.117.457-.234.913-.234 1.256-.117.228-.117.799-.117 1.028 0 .456-.117 1.027-.234 1.484-.117.457-.117.799-.117 1.256 0 .342-.117.571-.117.799 0 .228-.117.571-.234.799-.117.229-.117.457-.117.8 0 .228-.117.57-.117.799 0 .228-.117.456-.117.571-.234.571-.702.913-1.17 1.256-.117.114-.351.114-.585.114-.117 0-.352.114-.469.114-.117.114-.351.114-.585.228-.117.114-.234.343-.117.343 0 .114.117.114 0 .228v.114l.117.115H81l30.546 22.036L99.959 192l31.365-23.064L163.041 192l-11.704-36.194L182 133.313Zm-51.027-36.309c.117 0 .351.114.351.343 0 .114-.117.342-.351.342-.117 0-.351-.114-.351-.342 0-.115.234-.343.351-.343Zm-.585-2.398c.117 0 .351.114.351.343 0 .114-.117.342-.351.342-.117 0-.351-.114-.351-.342 0-.229.117-.343.351-.343-.117 0-.117 0 0 0Zm-.585-2.283c.117 0 .351.114.351.342 0 .114-.117.343-.351.343-.117 0-.351-.114-.351-.343 0-.228.117-.342.351-.342Zm-3.394 37.222c0-.114.117-.114.234-.343.117-.228.117-.571.234-.799.117-.228.585-1.941.702-2.284.117-.342.351-1.941.469-2.055.117-.114.351-1.827.351-2.169.117-.343.117-.799.117-1.142-.117 0-.117 0-.117-.114v-.114h.351c.117 0 0-.115.117-.229s.117-.456.117-.571c0-.114.117-.114.117-.114s.117-.114.117-.228c.117-.114.234-.228.234-.343 0-.114-.117-.342-.117-.342.234-.229.468-.571.585-.914.117-.228.234-.57.234-.913 0-.114.117-.114.117-.228.117-.115.234-.343.234-.457.117-.343.351-.571.585-.799.234-.229.703-1.028.82-1.142.117-.228.117-.343.234-.343.117.115.234.343.351.457.117.114.117.343.234.343.117.228.234.57.351.799 0 .114.468 1.256.585 1.484.234.457.351.799.585 1.256l.117.114c0 .114 0 .229.117.343.117.114.117.114.117.228.117.114.117.114.234.114.117.115 0 .115.117.115.118 0 .118.57.235.685.117.114.234.114.351.114.117 0 .117 0 .117.114s.117.114.117.228.117.229.117.343c0 .114 0 .114-.117.114 0 .114 0 .114.117.114.117.229.234.457.234.799 0 .115.585 2.056.585 2.17v.228c0 .114.117.114.117.229 0 .114.234.799.351 1.141.117.229.351 1.485.351 1.827.117.343.117.914.234 1.484 0 .229.117.457.351.686l-.117.114c0 .114-.234.342-.234.571 0 .228.117.456.117.57 0 .115-.117.115-.117.229-.117.114 0 .114 0 .342 0 .115-.234.343-.351.571-.234.229-.351.457-.585.685-.117.114-.234.115-.351.229l-.351.342c-.117.114 0 .229 0 .343v.228h-9.597c.117 0 0-.228 0-.342v-.457s0-.114-.117-.114c0-.114.117-.115.117-.229s-.117-1.027-.117-1.256c0-.228 0-.456-.117-.685 0-.228-.234-.228-.234-.342.234-.343.234-.457.351-.685Zm-2.458 3.425c.117 0 0 .114 0 .228v.115h-.468c.351-.115.468-.229.468-.343Z"/></svg>