<svg xmlns="http://www.w3.org/2000/svg" width="200" height="80" fill="none"><path fill="#fff" d="M89.5 31.581c-4.034 0-8.24 2.98-8.24 2.98v-1.915c0-.42-.165-.588-.58-.588h-5.148c-.415 0-.664.252-.664.588V73.5c0 .422.166.674.581.674h5.23c.332 0 .581-.252.581-.674V38.53s2.428-1.557 5.377-1.557c2.808 0 5.025 1.411 5.025 4.304v32.222c0 .421.248.674.664.674h5.147c.415 0 .581-.338.581-.674V39.444c0-5.128-3.115-7.863-8.554-7.863Zm40.045-20.492h-5.148c-.416 0-.664.252-.664.588v20.61c-1.977-.767-3.776-1.173-5.23-1.173-8.361 0-14.101 8.092-14.101 23.653 0 13.331 5.584 20.48 12.87 20.48 3.071 0 5.607-1.781 7.463-3.453l1.124 1.93c.19.333.345.447.726.447l2.961.003c.332 0 .582-.252.582-.674V11.678c-.001-.421-.168-.59-.583-.59ZM111.21 53.39c0-8.574 2.479-17.064 7.54-17.064 1.715 0 3.361.571 4.984 1.876v30.207c-1.269.698-2.864 1.342-4.588 1.342-5.504 0-7.936-6.61-7.936-16.36Zm38.055-22.192c-8.573 0-12.805 11.355-12.805 23.712 0 12.934 6.035 20.183 13.795 20.183 3.41 0 6.806-1.36 9.032-2.612.341-.192.403-.462.321-.797l-.651-2.732c-.081-.335-.247-.5-.659-.5-.181 0-2.994.832-5.731.832-6.35 0-9.262-5.715-9.262-13.305v-1.845s3.156.442 5.052.442h11.98v-3.505c.001-12.942-4.476-19.872-11.072-19.872Zm-.412 18.118c-1.897 0-5.347.475-5.347.475s.046-1.393.211-2.728c.743-7.097 2.415-10.687 5.301-10.687 2.509 0 4.228 3.673 4.641 10.101.082 1.337.082 2.84.082 2.84h-4.888Zm-83.762-12.81c-1.904-3.799-5.295-5.458-9.18-5.458-2.494 0-6.388.966-8.99 2.15-.508.231-.83.435-.83.84 0 .241.119.518.25.757l1.752 3.798c.18.429.47.527.71.527.258 0 .47-.124.702-.274 2.537-1.641 4.395-2.544 5.866-2.544 1.946 0 3.267 1.307 4.082 3.273.76 1.831 1.053 4.362 1.053 7.286l.002.86c-1.598-1.013-4.368-1.571-5.75-1.571-7.439 0-11.45 7.155-11.45 14.806 0 8.245 4.689 14.29 10.322 14.29 3.137 0 5.978-1.863 7.88-4.214 0 0 1.013 2.445 1.145 2.738.134.293.274.4.655.4l3.01.004c.332 0 .581-.252.581-.674V49.8c0-5.824-.291-10.266-1.81-13.296Zm-4.583 31.047c-1.476 1.442-3.242 2.198-4.831 2.198-1.59 0-2.818-.744-3.803-2.12-1.199-1.675-1.758-4.254-1.758-7.113 0-4.52 1.648-9.157 5.141-9.157 1.73 0 3.629.57 5.25 1.875v14.317Zm127.017-35.5h-4.589c-.513 0-.774.27-.906.624a2907.662 2907.662 0 0 0-3.025 8.085c-.568 1.53-2.095 5.913-2.095 5.913l-.177-.002c-.007-.015-1.124-3.188-1.73-4.776-.49-1.288-3.047-8.106-3.37-8.946-.173-.451-.366-.899-1.023-.899h-5.023c-.552 0-.864.614-.687.994.18.382 8.183 18.84 8.183 18.84s-8.595 20.67-8.847 21.133c-.251.464.064 1.151.676 1.151h4.402c.749 0 1.045-.398 1.27-1.038.632-1.794 1.575-4.29 2.909-8.147.883-2.556 2.282-7.042 2.282-7.042h.154s1.53 4.572 2.1 6.067c1.438 3.78 3.278 8.718 3.474 9.239.203.545.487.922 1.002.922h4.992c.494 0 .723-.571.49-1.068-.556-1.186-5.297-12.85-8.589-20.517 0 0 8.544-19.09 8.711-19.563.169-.473.12-.97-.584-.97ZM48.157 4.752h-5.751c-.51 0-.827.256-.9.629-.074.374-8.625 27.12-9.247 29.348-.44 1.579-1.877 7.148-2.222 8.485l-2.974-8.33c-.722-2.291-7.65-22.141-7.852-22.934-.111-.436-.307-.978-1.052-.978h-5.614c-.55 0-.86.618-.683 1 .142.307 10.283 27.984 14.38 38.558v23.247c0 .424.166.678.578.678h5.318c.33 0 .578-.254.578-.678V50.713C36.13 40.927 48.606 6.12 48.74 5.73c.166-.476.117-.978-.584-.978Z"/></svg>