<svg width="48" height="58" viewBox="0 0 48 58" fill="none" xmlns="http://www.w3.org/2000/svg">
<path d="M48 29.8688H28.6443V29.1573C28.6443 29.0479 28.5886 28.8837 28.5886 28.7742C28.533 28.6648 28.4774 28.6101 28.4774 28.5006C28.4774 28.4459 28.533 28.4459 28.533 28.3364C28.533 28.2817 28.4774 28.1722 28.4774 28.1175C28.4774 28.0627 28.4218 27.7891 28.4218 27.6249C28.4218 27.4607 28.3662 26.9134 28.3662 26.7492C28.3662 26.585 28.2549 25.7094 28.2549 25.4357C28.1993 25.1621 28.1993 24.8337 28.1437 24.5053C28.0881 24.1769 27.9768 23.4654 27.9768 23.356C27.9768 23.3013 27.9768 23.3012 27.9212 23.2465H27.6987C27.6431 23.1371 27.5875 23.0276 27.5319 22.9729C27.5319 22.9181 27.5319 22.9181 27.5875 22.9181V22.8634C27.5875 22.8634 27.6431 22.8634 27.6431 22.8087C27.6431 22.754 27.5875 22.6445 27.5875 22.6445L27.5319 22.4803C27.5319 22.3708 27.4762 22.3161 27.4762 22.2067C27.4206 22.0972 27.4206 22.0972 27.365 21.9877C27.3094 21.8783 27.3094 21.7688 27.3094 21.6594C27.3094 21.5499 27.2538 21.4404 27.1981 21.331C27.1981 21.2762 27.1425 21.2215 27.0869 21.1668C27.0313 21.1121 27.0313 21.0573 27.0313 21.0026V20.7289C27.0313 20.6742 26.9757 20.6195 27.0313 20.5648C27.0869 20.51 27.3094 20.4006 27.5319 20.2911C27.6987 20.1816 27.8656 20.0722 28.0324 19.908C28.1437 19.8533 28.2549 19.7438 28.2549 19.6891C28.3105 19.6343 28.3105 19.6343 28.3105 19.6343C28.3105 19.6343 28.3662 19.5796 28.533 19.5249C28.6443 19.4702 28.8111 19.3607 28.8667 19.306C28.9224 19.2512 28.8667 19.2512 28.8667 19.2512C28.8667 19.1965 28.9224 19.1965 28.9224 19.1965C29.0892 19.0871 29.2561 18.9776 29.3673 18.8134C29.4786 18.7039 29.5342 18.5945 29.5898 18.4303C29.5898 18.3208 29.5342 18.0472 29.5342 17.883C29.5342 17.7188 29.4786 17.062 29.4786 16.9526C29.4786 16.8431 29.4229 16.7884 29.4786 16.7884C29.5342 16.7337 29.5898 16.7884 29.7567 16.7337C29.9791 16.7337 30.2572 16.6789 30.4797 16.6789C30.6466 16.6789 30.8134 16.6242 30.9803 16.5695C31.0915 16.5147 31.1472 16.5147 31.1472 16.4053C31.1472 16.2958 31.0359 16.1316 30.9247 15.8032C30.8134 15.5296 30.591 15.3107 30.4241 15.0918C30.2572 14.9276 30.0904 14.7634 29.9235 14.5992C29.6454 14.3255 29.3117 13.9972 28.978 13.7782C28.6999 13.5593 28.3105 13.2857 27.9212 13.012C27.6987 12.8478 27.4762 12.6836 27.3094 12.5195C27.1425 12.3553 26.92 12.0816 26.8088 11.9722C26.6976 11.8627 26.6419 11.6985 26.5863 11.6438C26.4751 11.4249 26.4195 11.2607 26.3082 11.0418C26.2526 10.9323 26.2526 10.8776 26.2526 10.8776C26.2526 10.8228 26.3082 10.5492 26.3082 10.3303C26.3638 10.0566 26.3638 9.89243 26.4195 9.8377C26.4751 9.72824 26.5307 9.61878 26.5863 9.56405C26.6419 9.39986 26.6976 9.23567 26.6976 9.07148C26.6976 8.90729 26.6419 8.79782 26.6419 8.68836C26.5863 8.52417 26.4751 8.30526 26.4751 8.25053C26.4751 8.1958 26.4195 7.86742 26.4195 7.6485C26.3638 7.42958 26.3082 7.21066 26.197 7.04647C26.0857 6.93701 26.0301 6.77282 26.0301 6.66336C26.0301 6.49917 26.0857 6.49917 25.9745 6.33498C25.9189 6.1708 25.9189 6.22552 25.8076 6.17079C25.752 6.11606 25.6964 6.0066 25.752 5.95187C25.752 5.89714 25.6964 5.89714 25.6408 5.73295C25.5852 5.62349 25.5852 5.51404 25.5852 5.34985C25.5852 5.24039 25.5295 5.13093 25.4183 5.0762C25.3627 5.02147 25.4183 5.02146 25.4183 5.02146C25.4739 4.912 25.4739 4.80254 25.4739 4.74781C25.4183 4.58362 25.3627 4.41944 25.3071 4.25525C25.2514 4.14579 25.1958 4.03633 25.1958 3.9816C25.1958 3.92687 25.1958 3.92686 25.2514 3.92686C25.3071 3.87213 25.2514 3.87213 25.2514 3.76267V3.54376C25.2514 3.4343 25.1958 3.4343 25.1958 3.27011C25.1958 3.16065 25.1402 2.99646 25.1402 2.887C25.1402 2.83227 25.0846 2.83227 25.0846 2.77754H24.9177C24.9177 2.72281 24.9733 2.72281 24.9733 2.66808C24.9733 2.61335 25.029 2.55862 25.029 2.50389C25.0846 2.44916 25.0846 2.44916 25.1402 2.44916C25.1958 2.39443 25.1958 2.3397 25.1958 2.28497V2.23024C25.1402 2.23024 25.1402 2.17551 25.0846 2.17551C25.029 2.17551 25.029 2.17551 24.9733 2.12078C24.9177 2.12078 24.8621 2.12078 24.8065 2.17551C24.7509 2.17551 24.7509 2.12078 24.7509 2.12078C24.6952 2.06605 24.6952 2.06605 24.6952 2.06605V2.01132C24.6952 1.95659 24.7509 1.84713 24.8065 1.73767C24.8065 1.62821 24.8065 1.51875 24.8065 1.46402C24.8065 1.40929 24.7509 1.35456 24.7509 1.29983C24.7509 1.2451 24.6952 1.13565 24.6396 1.13565C24.584 1.08092 24.5284 1.08091 24.4728 1.08091C24.4728 1.02618 24.4172 1.02618 24.4172 0.971454C24.3615 0.916724 24.3615 0.971454 24.3059 0.971454L24.2503 0.916721C24.2503 0.861991 24.1947 0.861996 24.139 0.861996C24.0834 0.861996 24.0278 0.916726 24.0278 0.861996C24.0278 0.807266 24.0834 0.752534 24.0834 0.697805C24.0834 0.643075 24.139 0.588343 24.139 0.533613C24.139 0.424153 24.1947 0.314694 24.1947 0.259964C24.1947 0.205234 24.2503 0.0957773 24.2503 0.0410474C24.2503 -0.0136825 24.1947 -0.0136825 24.139 0.0410474C24.0834 0.0957773 24.0834 0.150501 24.0278 0.20523C23.9722 0.25996 23.9722 0.314692 23.9722 0.369422C23.9722 0.424152 23.9166 0.533616 23.9166 0.588346C23.9166 0.643076 23.9166 0.697799 23.861 0.752529C23.861 0.807259 23.8053 0.916724 23.8053 0.971454C23.8053 1.02618 23.7497 1.08092 23.7497 1.13565C23.7497 1.19038 23.6941 1.2451 23.6941 1.29983C23.6941 1.35456 23.5828 1.51875 23.5828 1.57348C23.5828 1.62821 23.6385 1.73767 23.6385 1.7924L23.7497 2.01132C23.6941 2.01132 23.6941 2.01132 23.6941 2.06605L23.6385 2.12078C23.6385 2.17551 23.5272 2.23024 23.4716 2.23024C23.416 2.23024 23.3604 2.28497 23.3048 2.28497C23.2491 2.3397 23.1379 2.44916 23.0823 2.44916C23.0266 2.44916 23.0823 2.50389 23.1379 2.55862C23.1935 2.61335 23.3048 2.66808 23.3048 2.72281C23.3048 2.77754 23.2491 2.77754 23.2491 2.77754C23.2491 2.83227 23.3048 2.83227 23.3048 2.83227C23.3604 2.887 23.416 2.94172 23.4716 2.94172C23.5272 2.94172 23.5272 2.99646 23.5272 2.99646C23.5272 3.05119 23.5828 3.21538 23.5828 3.27011V3.65322C23.5828 3.70794 23.5272 3.70795 23.5272 3.81741C23.5272 3.87214 23.5828 3.92686 23.5828 3.92686L23.6385 3.9816V4.03632C23.6385 4.03632 23.6385 4.09106 23.6941 4.09106V4.14579C23.6941 4.20052 23.7497 4.30997 23.7497 4.30997V4.47416C23.7497 4.58362 23.7497 4.69308 23.8053 4.74781C23.861 4.85727 23.9166 4.912 23.9722 5.02146C24.0278 5.07619 23.9722 5.18565 23.9722 5.29511C23.9722 5.4593 23.9722 5.6235 24.0278 5.78769C24.0278 5.84242 24.0834 5.89714 24.0834 5.95187C24.0834 6.06133 24.0834 6.17079 24.0834 6.28025C24.139 6.44444 24.139 6.49917 24.139 6.5539C24.139 6.60863 24.1947 6.77282 24.1947 6.93701C24.2503 6.99174 24.2503 7.1012 24.2503 7.21066C24.2503 7.26539 24.3059 7.37485 24.3059 7.42958C24.3059 7.53904 24.3059 7.6485 24.3059 7.75796C24.3059 8.03161 24.2503 8.25053 24.2503 8.1958C24.1947 8.14107 24.2503 8.03161 24.2503 7.92215C24.2503 7.81269 24.1947 7.70323 24.1947 7.6485C24.1947 7.59377 24.139 7.59377 24.139 7.59377L24.0834 7.53904L24.0278 7.48431V7.37485C24.0278 7.32012 24.0278 7.32012 23.9722 7.32012C23.9722 7.26539 23.9166 7.21066 23.9166 7.15593C23.8609 7.1012 23.861 6.99174 23.861 6.93701C23.8053 6.88228 23.7497 6.82755 23.6941 6.77282C23.6385 6.71809 23.5272 6.66336 23.4716 6.60863C23.416 6.5539 23.3604 6.49917 23.3048 6.44444C23.2491 6.38971 23.1379 6.38971 23.0823 6.38971C22.971 6.33498 22.8598 6.33498 22.8042 6.33498C22.7486 6.33498 22.6373 6.38971 22.5261 6.38971C22.4704 6.38971 22.4148 6.38971 22.3592 6.44444C22.3036 6.44444 22.248 6.49917 22.1924 6.49917C22.1367 6.49917 22.0811 6.5539 22.0811 6.5539C22.0255 6.60863 22.0255 6.60863 22.0255 6.66336C21.9699 6.66336 21.9699 6.71809 21.9699 6.71809C21.9699 6.77282 21.9142 6.82755 21.9142 6.88228C21.9142 6.93701 21.8586 6.93701 21.8586 6.93701C21.803 6.99174 21.803 6.99174 21.803 6.99174C21.803 7.04647 21.803 7.04647 21.7474 7.1012C21.7474 7.15593 21.6918 7.15593 21.6918 7.26539V7.53904C21.6918 7.70323 21.7474 7.86742 21.803 8.03161C21.8586 8.14107 21.9142 8.25052 21.9142 8.41471C21.9699 8.46944 22.1367 8.96202 22.1924 9.01675C22.248 9.07148 22.3036 9.18093 22.3592 9.23566C22.4148 9.34512 22.5817 9.50932 22.5817 9.61878C22.6373 9.67351 22.5817 9.6735 22.6373 9.6735V9.8377C22.5817 9.8377 22.5817 9.78296 22.5261 9.78296C22.4704 9.78296 22.4148 9.78297 22.3592 9.8377C22.3036 9.89243 22.1924 9.94716 22.1367 10.0019C22.0811 10.0566 22.0811 10.0566 22.0811 10.1661V10.4397C22.0811 10.4945 22.0255 10.4945 22.0255 10.4945C21.9699 10.5492 21.9142 10.6039 21.9142 10.6586C21.8586 10.7134 21.7474 10.8228 21.7474 10.9323C21.7474 11.0418 21.7474 11.1512 21.803 11.2059C21.803 11.2607 21.803 11.3154 21.7474 11.3701C21.7474 11.4796 21.6918 11.589 21.6362 11.6985C21.5805 11.8627 21.5249 12.0269 21.5249 12.1911C21.4693 12.2458 21.4693 12.6836 21.4137 12.7931C21.4137 12.9573 21.4693 13.3404 21.4693 13.5046C21.4693 13.6141 21.6362 14.1066 21.6918 14.2708C21.7474 14.4897 21.8586 14.7634 21.8586 14.8728C21.9143 15.037 22.0255 15.256 22.0255 15.4201C22.1367 15.6938 22.248 16.0222 22.248 16.2958C22.248 16.3505 22.1924 16.46 22.1924 16.46C22.1924 16.5147 22.1367 16.6242 22.1367 16.6242V16.7884C22.1367 16.8431 21.9699 17.1168 21.9699 17.1715C21.9699 17.2262 21.9142 17.3357 21.9142 17.3904H21.9699C21.9699 17.3904 22.0255 17.3904 21.9699 17.4451C21.9699 17.4999 21.9143 17.5546 21.8586 17.6093C21.803 17.6641 21.803 17.7188 21.803 17.7735C21.803 17.8283 21.803 17.883 21.8586 17.9377C21.8586 17.9924 21.9142 18.1019 21.9142 18.1019V18.1566C21.9142 18.2114 21.9699 18.2114 21.9699 18.2661V18.3208L21.9142 18.3756C21.9142 18.4303 21.9143 18.4303 21.8586 18.485C21.8586 18.5397 21.8586 18.5945 21.803 18.6492C21.803 18.7039 21.7474 18.7587 21.7474 18.8134C21.6918 18.9229 21.6362 19.0323 21.6362 19.1965C21.6362 19.2512 21.5805 19.2512 21.5805 19.2512C21.5249 19.306 21.5249 19.306 21.5249 19.3607C21.4693 19.4154 21.5249 19.4154 21.5249 19.4702V19.5249C21.5249 19.6344 21.4693 19.6891 21.4693 19.7985C21.4137 19.9627 21.3581 20.1269 21.3581 20.2911C21.3024 20.4006 21.3024 20.5647 21.3024 20.6742V21.4952C21.3024 21.5499 21.2468 21.6594 21.2468 21.7141V21.8235C21.2468 21.8783 21.3024 21.933 21.2468 21.933C21.2468 21.9877 21.1912 21.9877 21.1912 21.9877L21.08 22.0972C21.0243 22.1519 21.08 22.2067 21.0243 22.2614C20.9687 22.3161 21.0243 22.4256 21.0243 22.4256V22.4803C21.0243 22.535 20.9131 22.6445 20.9131 22.754C20.9131 22.8087 20.9131 22.9181 20.8575 22.9729C20.8019 23.0276 20.8019 23.1371 20.8019 23.1371C20.8019 23.1918 20.8575 23.2465 20.8575 23.2465V23.3013C20.8575 23.356 20.8575 23.4107 20.9131 23.4654V23.5202H20.8019C20.7462 23.5202 20.7462 23.5202 20.7462 23.5749V23.7391C20.7462 23.7938 20.635 24.3411 20.635 24.4506C20.5794 24.6695 20.5238 24.8884 20.5238 25.0526C20.4681 25.1621 20.4681 25.4357 20.4681 25.5452C20.4681 25.7641 20.4125 26.0377 20.3569 26.2567C20.3013 26.4756 20.3013 26.6398 20.3013 26.8587C20.3013 27.0229 20.2457 27.1323 20.2457 27.2418C20.2457 27.3513 20.19 27.5155 20.1344 27.6249C20.0788 27.7344 20.0788 27.8438 20.0788 28.008C20.0788 28.1175 20.0232 28.2817 20.0232 28.3911C20.0232 28.5006 19.9676 28.61 19.9676 28.6648C19.8563 28.9384 19.6338 29.1026 19.4114 29.2668C19.3557 29.3215 19.2445 29.3215 19.1333 29.3215C19.0776 29.3215 18.9664 29.3763 18.9108 29.3763C18.8552 29.431 18.7439 29.431 18.6327 29.4857C18.5771 29.5405 18.5214 29.6499 18.5771 29.6499C18.5771 29.7047 18.6327 29.7046 18.5771 29.7594V29.8141L18.6327 29.8688H0L14.5168 40.4317L9.01043 58L23.9166 46.9446L38.9896 58L33.4276 40.6506L48 29.8688ZM23.7497 12.4647C23.8053 12.4647 23.9166 12.5195 23.9166 12.6289C23.9166 12.6837 23.8609 12.7931 23.7497 12.7931C23.6941 12.7931 23.5828 12.7384 23.5828 12.6289C23.5828 12.5742 23.6941 12.4647 23.7497 12.4647ZM23.4716 11.3154C23.5272 11.3154 23.6385 11.3701 23.6385 11.4796C23.6385 11.5343 23.5829 11.6438 23.4716 11.6438C23.416 11.6438 23.3048 11.5891 23.3048 11.4796C23.3048 11.3701 23.3604 11.3154 23.4716 11.3154C23.416 11.3154 23.416 11.3154 23.4716 11.3154ZM23.1935 10.2208C23.2491 10.2208 23.3604 10.2755 23.3604 10.385C23.3604 10.4397 23.3047 10.5492 23.1935 10.5492C23.1379 10.5492 23.0266 10.4945 23.0266 10.385C23.0266 10.2755 23.0823 10.2208 23.1935 10.2208ZM21.5805 28.0627C21.5805 28.008 21.6362 28.008 21.6918 27.8986C21.7474 27.7891 21.7474 27.6249 21.803 27.5154C21.8586 27.406 22.0811 26.585 22.1367 26.4208C22.1924 26.2567 22.3036 25.4904 22.3592 25.4357C22.4148 25.381 22.5261 24.56 22.5261 24.3958C22.5817 24.2317 22.5817 24.0127 22.5817 23.8486C22.5261 23.8486 22.5261 23.8485 22.5261 23.7938V23.7391H22.6929C22.7486 23.7391 22.6929 23.6844 22.7486 23.6296C22.8042 23.5749 22.8042 23.4107 22.8042 23.356C22.8042 23.3013 22.8598 23.3013 22.8598 23.3013C22.8598 23.3013 22.9154 23.2465 22.9154 23.1918C22.971 23.1371 23.0266 23.0823 23.0266 23.0276C23.0266 22.9729 22.971 22.8634 22.971 22.8634C23.0823 22.7539 23.1935 22.5898 23.2491 22.4256C23.3048 22.3161 23.3604 22.1519 23.3604 21.9877C23.3604 21.933 23.416 21.933 23.416 21.8783C23.4716 21.8235 23.5272 21.7141 23.5272 21.6594C23.5828 21.4952 23.6941 21.3857 23.8053 21.2762C23.9166 21.1668 24.139 20.7837 24.1947 20.7289C24.2503 20.6195 24.2503 20.5648 24.3059 20.5648C24.3615 20.6195 24.4171 20.7289 24.4728 20.7837C24.5284 20.8384 24.5284 20.9479 24.584 20.9479C24.6396 21.0573 24.6952 21.2215 24.7509 21.331C24.7509 21.3857 24.9733 21.933 25.029 22.0425C25.1402 22.2614 25.1958 22.4256 25.3071 22.6445L25.3627 22.6992C25.3627 22.754 25.3627 22.8087 25.4183 22.8634C25.4739 22.9181 25.4739 22.9181 25.4739 22.9729C25.5295 23.0276 25.5295 23.0276 25.5852 23.0276C25.6408 23.0823 25.5852 23.0823 25.6408 23.0823C25.6964 23.0823 25.6964 23.356 25.752 23.4107C25.8076 23.4654 25.8633 23.4654 25.9189 23.4654C25.9745 23.4654 25.9745 23.4654 25.9745 23.5202C25.9745 23.5749 26.0301 23.5749 26.0301 23.6296C26.0301 23.6844 26.0857 23.7391 26.0857 23.7938C26.0857 23.8485 26.0857 23.8486 26.0301 23.8486C26.0301 23.9033 26.0301 23.9033 26.0857 23.9033C26.1414 24.0127 26.197 24.1222 26.197 24.2864C26.197 24.3411 26.4751 25.2715 26.4751 25.3262V25.4357C26.4751 25.4904 26.5307 25.4905 26.5307 25.5452C26.5307 25.5999 26.6419 25.9283 26.6976 26.0925C26.7532 26.2019 26.8644 26.804 26.8644 26.9681C26.92 27.1323 26.92 27.406 26.9757 27.6796C26.9757 27.7891 27.0313 27.8986 27.1425 28.008L27.0869 28.0627C27.0869 28.1175 26.9757 28.2269 26.9757 28.3364C26.9757 28.4459 27.0313 28.5553 27.0313 28.61C27.0313 28.6648 26.9757 28.6648 26.9757 28.7195C26.92 28.7742 26.9757 28.7742 26.9757 28.8837C26.9757 28.9384 26.8644 29.0479 26.8088 29.1573C26.6976 29.2668 26.6419 29.3763 26.5307 29.4857C26.4751 29.5405 26.4195 29.5405 26.3638 29.5952C26.3082 29.6499 26.2526 29.7046 26.197 29.7594C26.1414 29.8141 26.197 29.8688 26.197 29.9236V30.033H21.6362C21.6918 30.033 21.6362 29.9236 21.6362 29.8688V29.6499C21.6362 29.6499 21.6362 29.5952 21.5805 29.5952C21.5805 29.5405 21.6362 29.5405 21.6362 29.4857C21.6362 29.431 21.5805 28.9932 21.5805 28.8837C21.5805 28.7742 21.5805 28.6648 21.5249 28.5553C21.5249 28.4459 21.4137 28.4459 21.4137 28.3911C21.5249 28.2269 21.5249 28.1722 21.5805 28.0627ZM20.4125 29.7046C20.4681 29.7046 20.4125 29.7594 20.4125 29.8141V29.8688H20.19C20.3569 29.8141 20.4125 29.7594 20.4125 29.7046Z" fill="white"/>
</svg>
