<svg xmlns="http://www.w3.org/2000/svg" width="321" height="76" fill="none"><path fill="#fff" d="M132.905 44.685c-.392-.044-1.004-.391-1.437-.739-4.133-4.046 1.176-8.696 7.314-11.392V24.86c1.437.914 2.221.956 2.264 1.087l4.7-4.65-1.568-4.002c13.758-4.74 19.284-6.567 30.47-8.435l-2.005-1.872 3.266-1.866c7.514 2.48 14.628 3.133 13.407 9.435.305-4.261-5.005-5.914-13.1-8.157l-1.568.956 3.002 2.48c-13.404 2.303-21.633 4.914-31.425 8.32l1.347 3.48-4.9 4.826c.829.217 9.402 3.087 18.323-3.13 0 0 .177-.13.177-.174-.262-.434-.873-.913-1.611-1.566 2.614.175 4.306 2.48 4.002 4.87h-1.217a4.363 4.363 0 0 0-.348-2.175c-6.922 5.045-14.929 5.784-21.766 3.394v5.955c-3.307 1.175-9.228 4.824-9.184 8.35.217 1.693 1.09 2.284 1.872 2.74"/><path fill="#fff" d="M160.894 43.162c-7.405 3.74-14.497 6.738-25.423 7.173-14.233-.305-16.452-9.74-9.707-19.61 6.37-9.956 16.455-18.958 32.504-24.567 4.655-1.632 11.494-3.52 18.107-3.59 9.473-.088 18.718 2.872 18.109 11.96-.35 6.956-10.405 16.782-15.713 23.827-2.264 3.1-2.656 5.087 1.217 4.914 14.047-.913 26.816-5.783 38.656-10.828-8.008 5.436-49.408 25.913-49.578 11.959.042-1.785.869-3.655 2.218-5.653 1.306-2 3.136-4.089 5.008-6.22 2.829-3.217 9.832-10.93 12.184-15.523 3.961-8.739-4.9-9.174-12.58-11.87l-3.266 1.867 2.005 1.871c-11.188 1.869-16.713 3.696-30.469 8.435l1.568 4.002-4.701 4.65c-.131-.13-.828-.173-2.264-1.087v7.696c-6.141 2.696-11.433 7.347-7.314 11.393.434.348 1.045.697 1.437.74 7.514 4.26 28.032-1.523 27.991-1.523m-77.131 21.46-2.684-6.103-2.842 6.102h5.526Zm-8.554 6.688h-5.632l8.69-16.765h6.234l8.293 16.765h-6.256l-1.263-3.021h-8.712l-1.354 3.021Zm18.408-16.765h5.39v16.764h-5.39V54.56Zm8.684 5.077h5.39v11.67h-5.39v-11.67Zm0-5.057h5.39V58h-5.39v-3.42Zm19.265 10.935c0-1.03-.245-1.843-.728-2.439-.484-.595-1.143-.892-1.96-.892-.895 0-1.58.287-2.053.86-.474.572-.712 1.403-.712 2.496 0 1.031.24 1.832.718 2.405.479.572 1.144.856 2.001.856.841 0 1.511-.293 2.006-.886.495-.592.745-1.39.745-2.398m-10.829-10.972h5.403v6.755a6.451 6.451 0 0 1 2.159-1.488 6.77 6.77 0 0 1 2.613-.496c1.841 0 3.321.587 4.438 1.762 1.117 1.175 1.676 2.733 1.676 4.674 0 1.767-.55 3.181-1.653 4.247-1.102 1.065-2.564 1.599-4.41 1.599-1.006 0-1.919-.183-2.739-.55a5.74 5.74 0 0 1-2.101-1.62l-.045 1.057a3.54 3.54 0 0 1-.164.829h-5.403c.061-.219.108-.495.142-.82.035-.327.053-.707.053-1.132V54.55m28.142 11.702c-1.748 0-2.94.115-3.574.327-.633.212-.952.624-.952 1.19 0 .386.155.686.462.901.307.215.743.323 1.307.323.919 0 1.609-.212 2.066-.64.457-.427.691-1.071.691-1.933v-.182.014Zm.114 3.333a4.594 4.594 0 0 1-2.002 1.501c-.82.327-1.797.49-2.979.49-1.663 0-2.94-.294-3.834-.886a2.837 2.837 0 0 1-1.342-2.513c0-1.476.771-2.545 2.312-3.197 1.542-.653 4.126-.98 7.752-1.028 0-.023.005-.065.012-.13a1.12 1.12 0 0 0 .009-.143c0-.597-.163-1.044-.539-1.337-.375-.294-.898-.44-1.621-.44-.65 0-1.152.107-1.503.322a1.316 1.316 0 0 0-.622.97h-4.989c.023-1.296.654-2.26 1.846-2.892 1.192-.631 3.046-.95 5.521-.95 2.375 0 4.143.37 5.303 1.11 1.16.74 1.741 1.86 1.741 3.37v5.95c-.004.3.013.598.051.895.031.218.09.43.176.633h-5.006a4.704 4.704 0 0 1-.219-.842 5.62 5.62 0 0 1-.068-.88l.001-.003Zm18.921-4.069c0-1.03-.245-1.843-.729-2.439-.483-.595-1.143-.892-1.979-.892-.892 0-1.578.287-2.05.86-.472.572-.712 1.403-.712 2.496 0 1.031.238 1.832.715 2.405.477.572 1.144.856 2.003.856.841 0 1.509-.293 2.005-.886.497-.592.745-1.39.745-2.398m-10.829-10.972h5.39v6.755a6.684 6.684 0 0 1 2.156-1.488 6.77 6.77 0 0 1 2.614-.496c1.839 0 3.319.587 4.437 1.762 1.119 1.175 1.676 2.733 1.676 4.674 0 1.767-.552 3.181-1.654 4.247-1.103 1.065-2.565 1.599-4.41 1.599-1.007 0-1.92-.183-2.738-.55a5.73 5.73 0 0 1-2.102-1.62l-.046 1.057a4.32 4.32 0 0 1-.147.829h-5.39a5.19 5.19 0 0 0 .142-.82c.033-.332.049-.707.049-1.132V54.55m28.151 11.702c-1.748 0-2.94.115-3.593.327-.654.212-.953.624-.953 1.19 0 .386.155.686.463.901.307.215.743.323 1.306.323.918 0 1.609-.212 2.07-.64.46-.427.686-1.071.686-1.933l.021-.168Zm.114 3.333a4.591 4.591 0 0 1-2.001 1.501c-.82.327-1.796.49-2.98.49-1.662 0-2.94-.294-3.834-.886a2.837 2.837 0 0 1-1.339-2.513c0-1.476.771-2.545 2.311-3.197 1.54-.653 4.129-.98 7.753-1.028 0-.023.005-.065.012-.13l.01-.143c0-.597-.164-1.044-.539-1.337-.376-.294-.902-.44-1.621-.44-.653 0-1.153.107-1.502.322-.35.216-.556.539-.626.97h-4.985c.023-1.296.653-2.26 1.841-2.892 1.187-.631 3.048-.95 5.521-.95 2.374 0 4.142.37 5.303 1.11 1.161.74 1.741 1.86 1.741 3.37v5.95c-.004.3.012.598.049.895.032.217.091.43.177.633h-5.008a4.617 4.617 0 0 1-.219-.842 5.906 5.906 0 0 1-.069-.88l.005-.003Zm21.846-4.796V62.83h7.061v6.167c-1.085.861-2.202 1.51-3.353 1.945a9.956 9.956 0 0 1-3.548.652c-1.637 0-3.123-.349-4.462-1.05a6.955 6.955 0 0 1-3.03-3.038c-.686-1.325-1.022-2.806-1.022-4.443a10.247 10.247 0 0 1 1.019-4.535c.681-1.403 1.633-2.448 2.927-3.13 1.293-.681 2.739-1.02 4.397-1.02 1.205 0 2.296.195 3.266.587.97.391 1.74.934 2.293 1.631.554.697.974 1.607 1.258 2.73l-1.997.544c-.25-.848-.562-1.517-.931-2.001-.37-.485-.899-.878-1.59-1.17-.691-.292-1.448-.44-2.291-.44-1.006 0-1.875.153-2.609.46-.733.306-1.326.712-1.777 1.213a5.597 5.597 0 0 0-1.05 1.632 8.772 8.772 0 0 0-.634 3.36c0 1.49.253 2.735.765 3.753a4.893 4.893 0 0 0 2.231 2.232 6.867 6.867 0 0 0 3.105.73c.958-.001 1.907-.189 2.793-.554.906-.368 1.596-.762 2.066-1.181v-3.149h-4.892m10.034 6.552v-12.07h1.845v1.833c.49-.855.909-1.42 1.307-1.69.399-.271.84-.409 1.318-.409.693 0 1.397.218 2.112.653l-.715 1.896a2.962 2.962 0 0 0-1.501-.439 1.961 1.961 0 0 0-1.209.401c-.354.271-.609.645-.763 1.12a7.91 7.91 0 0 0-.341 2.387v6.317h-2.058m9.503-6.027c0 1.545.338 2.702 1.012 3.47a3.24 3.24 0 0 0 2.545 1.155 3.22 3.22 0 0 0 2.532-1.16c.674-.773 1.009-1.951 1.009-3.534 0-1.492-.336-2.623-1.016-3.393-.679-.77-1.519-1.155-2.527-1.155-1.022 0-1.87.383-2.544 1.148-.675.766-1.013 1.92-1.013 3.467m-2.114-.003c0-2.235.624-3.886 1.869-4.963 1.037-.892 2.306-1.338 3.799-1.338 1.663 0 3.022.542 4.075 1.628 1.054 1.087 1.58 2.588 1.58 4.503 0 1.553-.234 2.774-.699 3.661a4.948 4.948 0 0 1-2.037 2.072 5.97 5.97 0 0 1-2.919.738c-1.692 0-3.059-.542-4.083-1.623-1.024-1.082-1.568-2.644-1.568-4.678m21.952 6.033v-1.785a4.407 4.407 0 0 1-3.83 2.053 4.835 4.835 0 0 1-1.993-.411c-.614-.274-1.078-.614-1.375-1.028-.298-.415-.51-.917-.631-1.517-.082-.402-.126-1.038-.126-1.91V59.24h2.058v6.685c0 1.067.041 1.787.124 2.157.128.539.402.96.817 1.266.415.307.934.46 1.545.46a3.24 3.24 0 0 0 1.727-.49 2.614 2.614 0 0 0 1.14-1.28c.222-.541.336-1.325.336-2.357v-6.458h2.053v12.07h-1.845m7.252-5.947c0 1.553.326 2.702.942 3.426.616.725 1.385 1.115 2.28 1.115.908 0 1.686-.385 2.333-1.155.646-.77.97-1.958.97-3.59 0-1.538-.315-2.692-.947-3.455-.633-.764-1.389-1.149-2.264-1.149-.876 0-1.64.408-2.311 1.224-.672.816-1.003 1.998-1.003 3.553m-1.846 10.584v-16.69h1.862v1.569c.441-.614.938-1.072 1.493-1.377.555-.305 1.225-.457 2.009-.457 1.029 0 1.96.261 2.731.793.771.532 1.383 1.278 1.785 2.243.402.966.604 2.023.604 3.174 0 1.233-.222 2.346-.666 3.333-.444.987-1.088 1.745-1.931 2.27-.842.526-1.734.79-2.662.79-.683 0-1.294-.143-1.837-.429a4.104 4.104 0 0 1-1.333-1.086v5.867h-2.058"/></svg>