<svg xmlns="http://www.w3.org/2000/svg" width="321" height="105" fill="none"><path fill="#fff" d="M161.45 103.205c13.77 0 26.715-5.368 36.453-15.114 9.736-9.747 15.099-22.705 15.099-36.488 0-13.784-5.363-26.742-15.099-36.489C188.166 5.368 175.22 0 161.45 0c-28.426 0-51.552 23.149-51.552 51.602 0 13.784 5.363 26.742 15.1 36.489 9.737 9.746 22.682 15.114 36.452 15.114Z"/><path fill="#2F353F" d="M111.68 51.602c0-13.306 5.177-25.816 14.577-35.226s21.897-14.59 35.191-14.59c13.293 0 25.791 5.18 35.191 14.59 9.4 9.41 14.577 21.92 14.577 35.226 0 27.47-22.326 49.817-49.768 49.817-13.294 0-25.791-5.181-35.191-14.59-9.4-9.41-14.577-21.92-14.577-35.227Z"/><path fill="#fff" d="M161.447 3.839c-26.353 0-47.717 21.385-47.717 47.764 0 26.378 21.364 47.764 47.717 47.764 26.353 0 47.717-21.386 47.717-47.765 0-26.378-21.364-47.763-47.717-47.763Z"/><path fill="#2F353F" d="M161.449 82.112c-16.834 0-30.48-13.66-30.48-30.51s13.646-30.51 30.48-30.51c16.833 0 30.48 13.66 30.48 30.51s-13.647 30.51-30.48 30.51Z"/><path fill="#fff" d="M132.93 51.603h28.519V23.055c-15.751 0-28.519 12.782-28.519 28.548Zm28.519 0V80.15c15.75 0 28.519-12.781 28.519-28.547h-28.519Z"/><path fill="#2F353F" d="M139.047 22.492c-1.011-.983-2.572-1.28-4.038-.37.28-.726.165-1.467.016-1.876-.631-1.153-.852-1.297-1.372-1.735-1.685-1.415-3.459-.207-4.727 1.306l-6.129 7.311 9.634 8.093 6.463-7.71c1.477-1.762 1.705-3.508.153-5.019Zm23.995-3.474 3.309-8.778v8.778h2.515V6.446h-3.779l-3.436 9.002h.036l-3.437-9.002h-3.778v12.572h2.515V10.24l3.308 8.778h2.747Zm33.808 5.23-4.734 6.71 7.339-3.488 1.944 2.402-11.552 5.605-2.281-2.841 4.544-6.65-.027-.034-7.444 3.066-2.303-2.824 7.88-10.145 1.943 2.402-4.934 6.46 7.54-3.24 2.085 2.578Z"/><path fill="#fff" d="M130.267 21.627c.427-.509 1.39-.488 2.01.033.682.572.683 1.384.226 1.93l-3.64 4.341-2.277-1.913 3.681-4.39Zm6.476 5.122-3.838 4.577-2.406-2.02 3.868-4.616c.437-.52 1.411-.672 2.068-.12.744.624.817 1.571.308 2.179Z"/></svg>