<svg xmlns="http://www.w3.org/2000/svg" width="262" height="262" fill="none"><path fill="#B5B6BA" d="M56.12 116.461c-14.247 0-26.12 5.972-26.12 23.992 0 14.276 7.984 23.265 26.488 23.265 21.78 0 23.177-14.177 23.177-14.177H69.11s-2.263 7.634-13.267 7.634c-8.962 0-15.409-5.983-15.409-14.368H80.77v-5.262c0-8.296-5.33-21.084-24.649-21.084Zm-.368 6.725c8.531 0 14.348 5.164 14.348 12.905H40.669c0-8.218 7.592-12.905 15.083-12.905Z"/><path fill="#B5B6BA" d="M80.76 99.012v55.657c0 3.159-.229 7.595-.229 7.595h10.066s.362-3.186.362-6.098c0 0 4.973 7.689 18.496 7.689 14.239 0 23.912-9.77 23.912-23.765 0-13.021-8.884-23.493-23.889-23.493-14.051 0-18.418 7.497-18.418 7.497V99.012h-10.3Zm26.12 24.469c9.67 0 15.819 7.092 15.819 16.609 0 10.205-7.102 16.881-15.75 16.881-10.321 0-15.889-7.964-15.889-16.791 0-8.225 4.996-16.699 15.82-16.699Z"/><path fill="#B5B6BA" d="M158.385 116.461c-21.434 0-22.808 11.596-22.808 13.45h10.668s.56-6.77 11.405-6.77c7.047 0 12.508 3.187 12.508 9.315v2.181H157.65c-16.606 0-25.384 4.8-25.384 14.541 0 9.586 8.111 14.802 19.072 14.802 14.94 0 19.752-8.157 19.752-8.157 0 3.245.252 6.442.252 6.442h9.484s-.367-3.963-.367-6.498v-21.914c0-14.369-11.729-17.392-22.074-17.392Zm11.773 24.719v2.908c0 3.793-2.369 13.223-16.314 13.223-7.636 0-10.91-3.765-10.91-8.134 0-7.946 11.025-7.997 27.224-7.997Z"/><path fill="#B5B6BA" d="M174.715 118.28h12.002l17.225 34.1 17.186-34.1H232l-31.303 60.708h-11.405l9.033-16.923-23.61-43.785Z"/></svg>