<svg xmlns="http://www.w3.org/2000/svg" width="321" height="105" fill="none"><path fill="#fff" d="M204.993 54.073h-35.131v-1.288c0-.198-.101-.495-.101-.694-.101-.198-.202-.297-.202-.495 0-.1.101-.1.101-.297 0-.1-.101-.298-.101-.397 0-.099-.101-.594-.101-.891 0-.298-.101-1.288-.101-1.586 0-.297-.202-1.882-.202-2.378-.101-.495-.101-1.09-.202-1.684-.101-.594-.303-1.883-.303-2.08 0-.1 0-.1-.101-.199h-.403c-.101-.198-.202-.396-.303-.495 0-.1 0-.1.101-.1v-.098s.101 0 .101-.1c0-.098-.101-.297-.101-.297l-.101-.297c0-.198-.101-.297-.101-.495l-.202-.397c-.101-.198-.101-.396-.101-.594 0-.198-.101-.396-.202-.595 0-.099-.101-.198-.202-.297-.101-.099-.101-.198-.101-.297v-.495c0-.1-.101-.199 0-.298.101-.099.505-.297.909-.495.303-.198.605-.396.908-.694.202-.099.404-.297.404-.396l.101-.1s.101-.098.404-.197c.202-.1.505-.297.606-.397.1-.099 0-.099 0-.099 0-.099.1-.099.1-.099.303-.198.606-.396.808-.693.202-.198.303-.397.404-.694 0-.198-.101-.693-.101-.99 0-.298-.101-1.487-.101-1.685 0-.198-.101-.297 0-.297.101-.1.202 0 .505-.1.404 0 .908-.098 1.312-.098.303 0 .606-.1.909-.199.202-.099.303-.099.303-.297 0-.198-.202-.495-.404-1.09-.202-.495-.606-.891-.909-1.288l-.908-.891c-.505-.496-1.111-1.09-1.717-1.487-.504-.396-1.211-.891-1.918-1.387-.403-.297-.807-.594-1.11-.892-.303-.297-.707-.792-.909-.99-.202-.198-.303-.496-.404-.595-.201-.396-.302-.693-.504-1.09-.101-.198-.101-.297-.101-.297 0-.099.101-.594.101-.99.101-.496.101-.793.202-.892.101-.198.202-.397.302-.496.101-.297.202-.594.202-.892 0-.297-.101-.495-.101-.693-.101-.297-.302-.694-.302-.793 0-.099-.101-.693-.101-1.09-.101-.396-.202-.792-.404-1.09a1.06 1.06 0 0 1-.303-.693c0-.297.101-.297-.101-.595-.101-.297-.101-.198-.303-.297-.101-.099-.202-.297-.101-.396 0-.1-.101-.1-.202-.396-.101-.198-.101-.397-.101-.694a.543.543 0 0 0-.303-.495c-.1-.1 0-.1 0-.1.101-.198.101-.396.101-.495l-.302-.892c-.101-.198-.202-.396-.202-.495 0-.099 0-.099.101-.099.101-.1 0-.1 0-.297v-.397c0-.198-.101-.198-.101-.495 0-.198-.101-.495-.101-.694 0-.099-.101-.099-.101-.198h-.303c0-.099.101-.099.101-.198s.101-.198.101-.297c.101-.1.101-.1.202-.1.101-.098.101-.197.101-.296v-.1c-.101 0-.101-.099-.202-.099s-.101 0-.202-.099c-.101 0-.202 0-.303.1-.101 0-.101-.1-.101-.1l-.101-.099v-.099c0-.099.101-.297.202-.495V2.65c0-.099-.101-.198-.101-.297 0-.099-.101-.297-.202-.297-.101-.1-.202-.1-.303-.1 0-.098-.101-.098-.101-.197-.101-.1-.101 0-.202 0l-.101-.1c0-.099-.101-.098-.201-.098-.101 0-.202.099-.202 0 0-.1.101-.199.101-.298 0-.099.101-.198.101-.297 0-.198.1-.396.1-.495 0-.1.101-.298.101-.397 0-.099-.101-.099-.201 0-.101.1-.101.198-.202.298-.101.099-.101.198-.101.297 0 .099-.101.297-.101.396 0 .1 0 .198-.101.297 0 .1-.101.298-.101.397 0 .099-.101.198-.101.297 0 .099-.101.198-.101.297 0 .1-.202.396-.202.496 0 .099.101.297.101.396l.202.396c-.101 0-.101 0-.101.1l-.101.098c0 .1-.202.199-.303.199-.101 0-.202.099-.303.099-.101.099-.303.297-.404.297-.101 0 0 .099.101.198.101.1.303.198.303.297 0 .1-.101.1-.101.1 0 .098.101.098.101.098.101.1.202.199.303.199.101 0 .101.099.101.099 0 .099.101.396.101.495v.694c0 .099-.101.099-.101.297 0 .099.101.198.101.198l.101.1v.098s0 .1.101.1v.098c0 .1.101.298.101.298V8.1c0 .198 0 .396.101.495.101.198.202.297.303.496.101.099 0 .297 0 .495 0 .297 0 .595.101.892 0 .099.101.198.101.297v.594c.101.298.101.397.101.496 0 .099.1.396.1.693.101.1.101.298.101.496 0 .099.101.297.101.396v.595c0 .495-.101.891-.101.792-.101-.099 0-.297 0-.495s-.101-.397-.101-.496c0-.099-.1-.099-.1-.099l-.101-.099-.101-.099v-.198c0-.1 0-.1-.101-.1 0-.098-.101-.197-.101-.296-.101-.1-.101-.297-.101-.397l-.303-.297c-.101-.099-.303-.198-.404-.297l-.303-.297c-.101-.1-.303-.1-.404-.1-.201-.098-.403-.098-.504-.098-.101 0-.303.099-.505.099-.101 0-.202 0-.303.099-.101 0-.202.099-.303.099-.101 0-.202.099-.202.099-.101.099-.101.099-.101.198-.101 0-.101.1-.101.1 0 .098-.101.197-.101.296 0 .1-.101.1-.101.1l-.1.099c0 .099 0 .099-.101.198 0 .099-.101.099-.101.297v.495c0 .297.101.595.202.892.1.198.201.396.201.694.101.099.404.99.505 1.09.101.098.202.297.303.396.101.198.404.495.404.693.101.1 0 .1.101.1v.297c-.101 0-.101-.1-.202-.1s-.202 0-.303.1c-.101.099-.303.198-.404.297-.101.099-.101.099-.101.297v.495c0 .1-.101.1-.101.1-.101.099-.202.198-.202.297-.101.099-.302.297-.302.495s0 .396.101.496c0 .099 0 .198-.101.297 0 .198-.101.396-.202.594-.101.298-.202.595-.202.892-.101.1-.101.892-.202 1.09 0 .297.101.99.101 1.288 0 .198.303 1.09.404 1.387.101.396.302.892.302 1.09.101.297.303.694.303.99.202.496.404 1.09.404 1.586 0 .1-.101.297-.101.297 0 .1-.101.298-.101.298v.297c0 .099-.303.594-.303.693 0 .1-.101.298-.101.397h.101s.101 0 0 .099c0 .099-.101.198-.202.297-.1.1-.1.198-.1.297 0 .1 0 .198.1.297 0 .1.101.298.101.298v.099c0 .099.101.099.101.198v.099l-.101.1c0 .098 0 .098-.101.197 0 .1 0 .198-.1.297 0 .1-.101.199-.101.298-.101.198-.202.396-.202.693 0 .1-.101.1-.101.1-.101.099-.101.098-.101.198-.101.099 0 .099 0 .198v.099c0 .198-.101.297-.101.495-.101.297-.202.595-.202.892-.101.198-.101.495-.101.693v1.487c0 .099-.101.297-.101.396v.198c0 .1.101.198 0 .198 0 .1-.101.1-.101.1l-.202.198c-.101.099 0 .198-.101.297-.101.099 0 .297 0 .297v.1c0 .098-.202.296-.202.495 0 .099 0 .297-.101.396-.101.099-.101.297-.101.297 0 .1.101.198.101.198v.1c0 .098 0 .197.101.297v.099h-.202c-.101 0-.101 0-.101.099v.297c0 .099-.201 1.09-.201 1.288-.101.396-.202.793-.202 1.09-.101.198-.101.693-.101.892 0 .396-.101.891-.202 1.288-.101.396-.101.693-.101 1.09 0 .297-.101.495-.101.693 0 .198-.101.495-.202.694-.101.198-.101.396-.101.693 0 .198-.101.496-.101.694 0 .198-.101.396-.101.495-.202.495-.606.793-1.009 1.09-.101.1-.303.1-.505.1-.101 0-.303.098-.404.098-.101.1-.303.1-.505.198-.101.1-.202.298-.101.298 0 .099.101.099 0 .198v.099l.101.099h-33.819l26.349 19.122L134.225 105l27.056-20.014L188.639 105l-10.095-31.408 26.449-19.52Zm-44.015-31.508c.101 0 .303.1.303.298 0 .099-.101.297-.303.297-.101 0-.303-.1-.303-.297 0-.1.202-.297.303-.297Zm-.505-2.08c.101 0 .303.099.303.297 0 .1-.101.297-.303.297-.101 0-.303-.099-.303-.297 0-.198.101-.297.303-.297-.101 0-.101 0 0 0Zm-.505-1.982c.101 0 .303.1.303.297 0 .1-.101.298-.303.298-.101 0-.303-.1-.303-.298 0-.198.101-.297.303-.297Zm-2.927 32.3c0-.099.101-.099.202-.297.101-.198.101-.495.202-.694.1-.198.504-1.684.605-1.981.101-.297.303-1.684.404-1.784.101-.099.303-1.585.303-1.882.101-.297.101-.694.101-.99-.101 0-.101 0-.101-.1v-.1h.303c.101 0 0-.098.101-.197.101-.1.101-.396.101-.496 0-.099.101-.099.101-.099s.101-.099.101-.198c.101-.099.201-.198.201-.297 0-.1-.1-.297-.1-.297.201-.198.403-.496.504-.793.101-.198.202-.495.202-.793 0-.099.101-.099.101-.198.101-.099.202-.297.202-.396.101-.297.303-.495.505-.694.202-.198.606-.891.706-.99.101-.199.101-.298.202-.298.101.1.202.297.303.397.101.099.101.297.202.297.101.198.202.495.303.693 0 .1.404 1.09.505 1.288.202.397.303.694.505 1.09l.101.1c0 .099 0 .198.1.297.101.099.101.099.101.198.101.099.101.099.202.099.101.099 0 .099.101.099s.101.495.202.594c.101.1.202.1.303.1.101 0 .101 0 .101.099s.101.099.101.198.101.198.101.297c0 .1 0 .1-.101.1 0 .098 0 .098.101.098.101.198.202.396.202.694 0 .099.505 1.783.505 1.882v.198c0 .1.101.1.101.199s.201.693.302.99c.101.199.303 1.288.303 1.586.101.297.101.792.202 1.288 0 .198.101.396.303.594l-.101.1c0 .098-.202.296-.202.495 0 .198.101.396.101.495 0 .1-.101.1-.101.198-.101.1 0 .1 0 .297 0 .1-.202.298-.303.496-.202.198-.303.396-.504.594-.101.1-.202.1-.303.199l-.303.297c-.101.099 0 .198 0 .297v.198h-8.278c.101 0 0-.198 0-.297v-.396s0-.1-.101-.1c0-.099.101-.099.101-.198s-.101-.891-.101-1.09c0-.198 0-.396-.101-.594 0-.198-.202-.198-.202-.297.202-.298.202-.397.303-.595Zm-2.12 2.973c.101 0 0 .099 0 .198v.099h-.404c.303-.1.404-.198.404-.297Z"/></svg>