<svg width="173" height="173" viewBox="0 0 173 173" fill="none" xmlns="http://www.w3.org/2000/svg">
<path d="M81.3281 41.9755C79.15 41.9755 76.879 43.5777 76.879 43.5777V42.5481C76.879 42.3223 76.7895 42.2319 76.5655 42.2319H73.7853C73.5611 42.2319 73.4266 42.3674 73.4266 42.5481V64.5067C73.4266 64.7333 73.5163 64.8689 73.7406 64.8689H76.5653C76.7443 64.8689 76.8788 64.7333 76.8788 64.5067V45.7104C76.8788 45.7104 78.1899 44.8733 79.7824 44.8733C81.2984 44.8733 82.4954 45.6316 82.4954 47.1864V64.5058C82.4954 64.7324 82.6294 64.868 82.8541 64.868H85.6336C85.8578 64.868 85.9473 64.6866 85.9473 64.5058V46.2021C85.9471 43.4455 84.2653 41.9755 81.3281 41.9755ZM102.953 30.9609H100.172C99.948 30.9609 99.8139 31.0963 99.8139 31.2773V42.3549C98.7466 41.9425 97.775 41.7245 96.9897 41.7245C92.4748 41.7245 89.3754 46.0741 89.3754 54.438C89.3754 61.6034 92.3904 65.4461 96.3252 65.4461C97.9835 65.4461 99.3528 64.4884 100.355 63.59L100.962 64.627C101.065 64.8063 101.148 64.8677 101.354 64.8677L102.953 64.8693C103.132 64.8693 103.267 64.7338 103.267 64.5071V31.2773C103.267 31.0511 103.176 30.9609 102.953 30.9609ZM93.0516 53.698C93.0516 49.0891 94.3901 44.5258 97.1233 44.5258C98.0493 44.5258 98.9383 44.8328 99.8144 45.534V61.7704C99.1295 62.146 98.268 62.4916 97.3371 62.4916C94.3649 62.4916 93.0516 58.9394 93.0516 53.698ZM113.601 41.7699C108.972 41.7699 106.687 47.873 106.687 54.5146C106.687 61.4667 109.946 65.363 114.136 65.363C115.977 65.363 117.811 64.6326 119.013 63.9594C119.197 63.856 119.231 63.7106 119.187 63.5309L118.835 62.0622C118.791 61.8825 118.701 61.7932 118.479 61.7932C118.381 61.7932 116.862 62.2409 115.384 62.2409C111.955 62.2409 110.383 59.169 110.383 55.0893V54.0979C110.383 54.0979 112.087 54.3353 113.111 54.3353H119.58V52.4511C119.581 45.4949 117.163 41.7699 113.601 41.7699ZM113.379 51.5081C112.355 51.5081 110.491 51.7633 110.491 51.7633C110.491 51.7633 110.516 51.0144 110.605 50.2969C111.007 46.4823 111.909 44.5526 113.468 44.5526C114.823 44.5526 115.751 46.5268 115.974 49.9823C116.018 50.7004 116.018 51.5081 116.018 51.5081H113.379ZM68.147 44.6223C67.1189 42.5809 65.288 41.6888 63.1906 41.6888C61.8431 41.6888 59.7404 42.208 58.3358 42.8444C58.061 42.969 57.8875 43.0784 57.8875 43.2961C57.8875 43.4256 57.9515 43.5743 58.0218 43.7027L58.9681 45.7446C59.0656 45.975 59.2221 46.0279 59.3513 46.0279C59.4913 46.0279 59.6052 45.9612 59.7306 45.8801C61.1006 44.9981 62.1039 44.5129 62.8983 44.5129C63.9492 44.5129 64.6629 45.2153 65.103 46.272C65.5131 47.2565 65.6716 48.6168 65.6716 50.1886C65.6716 50.3889 65.6727 50.6504 65.6727 50.6504C64.8094 50.106 63.3137 49.8061 62.567 49.8061C58.5505 49.8061 56.3848 53.652 56.3848 57.7647C56.3848 62.196 58.9163 65.4459 61.9584 65.4459C63.6525 65.4459 65.1863 64.4439 66.2135 63.1803C66.2135 63.1803 66.7606 64.4944 66.832 64.652C66.904 64.8092 66.9798 64.8675 67.1856 64.8675L68.8113 64.8691C68.9904 64.8691 69.1249 64.7335 69.1249 64.5069V51.7689C69.1242 48.6385 68.9673 46.2508 68.147 44.6223ZM65.6722 61.3104C64.8757 62.0857 63.922 62.4916 63.0636 62.4916C62.2054 62.4916 61.5422 62.0922 61.0102 61.3519C60.3628 60.4518 60.0608 59.0656 60.0608 57.5293C60.0608 55.0998 60.9508 52.6069 62.8371 52.6069C63.7709 52.6069 64.7966 52.9133 65.672 53.6151L65.6722 61.3104ZM134.262 42.2287H131.784C131.507 42.2287 131.365 42.3748 131.294 42.5644C130.748 44.0122 130.203 45.4609 129.661 46.9104C129.354 47.733 128.53 50.0884 128.53 50.0884L128.434 50.0877C128.43 50.0792 127.827 48.3741 127.5 47.5202C127.235 46.8278 125.855 43.1635 125.68 42.712C125.587 42.4692 125.482 42.2287 125.128 42.2287H122.415C122.117 42.2287 121.948 42.5586 122.044 42.7631C122.141 42.9683 126.463 52.8896 126.463 52.8896C126.463 52.8896 121.822 63.9991 121.686 64.2483C121.55 64.4977 121.72 64.8671 122.05 64.8671H124.428C124.832 64.8671 124.992 64.6534 125.113 64.3093C125.455 63.3446 125.964 62.0033 126.684 59.93C127.161 58.5562 127.917 56.1449 127.917 56.1449H128C128 56.1449 128.826 58.6025 129.134 59.4059C129.911 61.4379 130.904 64.0918 131.01 64.372C131.119 64.665 131.273 64.8673 131.551 64.8673H134.247C134.513 64.8673 134.637 64.5605 134.511 64.2934C134.211 63.6561 131.651 57.3871 129.873 53.2654C129.873 53.2654 134.487 43.0047 134.577 42.7508C134.668 42.4965 134.642 42.2287 134.262 42.2287Z" fill="white"/>
<path d="M59.0032 27.5547H55.8974C55.6224 27.5547 55.4509 27.6923 55.411 27.8924C55.3716 28.0933 50.754 42.4695 50.4182 43.6671C50.1802 44.5158 49.4045 47.509 49.2183 48.2278L47.6123 43.7507C47.2223 42.5188 43.4817 31.8494 43.3723 31.4231C43.312 31.1889 43.2063 30.8975 42.804 30.8975H39.7724C39.4756 30.8975 39.3084 31.2298 39.4038 31.4357C39.4804 31.6003 44.9567 46.4767 47.1693 52.16V64.6554C47.1693 64.8836 47.2584 65.02 47.4813 65.02H50.3528C50.531 65.02 50.6646 64.8836 50.6646 64.6554V52.2583C52.5084 46.9987 59.2452 28.2898 59.3185 28.0803C59.4077 27.824 59.3813 27.5547 59.0032 27.5547Z" fill="white"/>
</svg>
