<svg xmlns="http://www.w3.org/2000/svg" width="262" height="262" fill="none"><path fill="#B5B6BA" d="M120.5 122.581c-4.034 0-8.239 2.981-8.239 2.981v-1.915c0-.42-.166-.589-.581-.589h-5.148c-.415 0-.664.252-.664.589V164.5c0 .421.166.674.581.674h5.231c.331 0 .58-.253.58-.674v-34.97s2.428-1.558 5.377-1.558c2.808 0 5.025 1.411 5.025 4.304v32.222c0 .422.248.674.664.674h5.147c.415 0 .581-.337.581-.674v-34.053c0-5.129-3.115-7.864-8.554-7.864Zm40.045-20.492h-5.148c-.416 0-.664.252-.664.589v20.609c-1.977-.767-3.776-1.173-5.23-1.173-8.361 0-14.101 8.093-14.101 23.653 0 13.331 5.584 20.481 12.87 20.481 3.071 0 5.607-1.782 7.463-3.454l1.124 1.93c.19.333.345.448.726.448l2.961.002c.332 0 .582-.252.582-.673v-61.823c-.001-.421-.168-.589-.583-.589Zm-18.335 42.302c0-8.575 2.479-17.065 7.54-17.065 1.715 0 3.361.571 4.984 1.876v30.207c-1.269.699-2.864 1.342-4.588 1.342-5.504 0-7.936-6.609-7.936-16.36Zm38.055-22.192c-8.573 0-12.805 11.354-12.805 23.711 0 12.934 6.035 20.183 13.795 20.183 3.41 0 6.806-1.359 9.032-2.611.341-.193.403-.463.321-.798l-.651-2.732c-.081-.334-.247-.501-.659-.501-.181 0-2.994.833-5.731.833-6.35 0-9.262-5.715-9.262-13.305v-1.844s3.156.441 5.052.441h11.98v-3.505c.001-12.942-4.476-19.872-11.072-19.872Zm-.412 18.117c-1.897 0-5.347.475-5.347.475s.046-1.393.211-2.728c.743-7.097 2.415-10.687 5.301-10.687 2.509 0 4.228 3.673 4.641 10.102.082 1.336.082 2.838.082 2.838h-4.888Zm-83.762-12.81c-1.904-3.798-5.295-5.458-9.18-5.458-2.494 0-6.388.966-8.99 2.15-.508.232-.83.435-.83.84 0 .241.119.518.25.757l1.752 3.799c.18.428.47.527.71.527.258 0 .47-.125.702-.275 2.537-1.641 4.395-2.544 5.866-2.544 1.946 0 3.267 1.307 4.083 3.273.759 1.831 1.052 4.362 1.052 7.287l.002.859c-1.598-1.013-4.368-1.571-5.75-1.571-7.439 0-11.45 7.155-11.45 14.806 0 8.245 4.689 14.291 10.322 14.291 3.137 0 5.978-1.864 7.88-4.215 0 0 1.013 2.445 1.145 2.738.134.293.274.401.655.401l3.01.003c.332 0 .581-.252.581-.674v-23.698c0-5.824-.291-10.267-1.81-13.296Zm-4.583 31.047c-1.475 1.443-3.242 2.198-4.831 2.198-1.59 0-2.818-.743-3.803-2.121-1.199-1.674-1.758-4.253-1.758-7.111 0-4.52 1.648-9.158 5.141-9.158 1.73 0 3.629.57 5.25 1.875v14.317Zm127.017-35.501h-4.589c-.513 0-.774.272-.906.625a2907.852 2907.852 0 0 0-3.025 8.086c-.568 1.53-2.095 5.912-2.095 5.912l-.177-.001c-.007-.016-1.124-3.188-1.73-4.777-.49-1.288-3.047-8.106-3.37-8.946-.173-.451-.366-.899-1.023-.899h-5.023c-.552 0-.864.614-.687.995.18.381 8.183 18.84 8.183 18.84s-8.595 20.668-8.847 21.132c-.251.464.064 1.151.676 1.151h4.402c.749 0 1.045-.397 1.27-1.037.632-1.795 1.575-4.291 2.909-8.148.883-2.556 2.282-7.042 2.282-7.042h.154s1.53 4.572 2.1 6.067c1.438 3.78 3.278 8.718 3.474 9.239.203.545.487.922 1.002.922h4.992c.494 0 .723-.571.49-1.068-.556-1.186-5.297-12.849-8.589-20.517 0 0 8.544-19.09 8.711-19.562.169-.473.12-.972-.584-.972ZM79.157 95.752h-5.751c-.51 0-.827.256-.9.629-.074.374-8.625 27.12-9.247 29.348-.44 1.579-1.877 7.148-2.222 8.485l-2.974-8.329c-.722-2.292-7.65-22.142-7.852-22.935-.111-.436-.307-.978-1.052-.978h-5.614c-.55 0-.86.618-.683 1.001.142.306 10.283 27.983 14.38 38.557v23.247c0 .425.166.678.579.678h5.317c.33 0 .578-.253.578-.678v-23.064c3.414-9.786 15.89-44.593 16.025-44.983.165-.477.117-.978-.584-.978Z"/></svg>