<svg xmlns="http://www.w3.org/2000/svg" width="262" height="262" fill="none"><path fill="#B5B6BA" d="M102.905 138.685c-.392-.044-1.004-.391-1.437-.739-4.133-4.046 1.176-8.696 7.314-11.393v-7.692c1.437.914 2.221.956 2.264 1.087l4.7-4.65-1.568-4.002c13.758-4.74 19.284-6.567 30.47-8.435l-2.005-1.872 3.266-1.866c7.514 2.48 14.628 3.133 13.407 9.435.305-4.261-5.005-5.914-13.1-8.157l-1.568.956 3.002 2.479c-13.404 2.304-21.633 4.915-31.425 8.321l1.347 3.48-4.9 4.826c.829.217 9.402 3.087 18.323-3.129 0 0 .177-.131.177-.175-.262-.434-.873-.913-1.611-1.566 2.614.175 4.306 2.48 4.002 4.87h-1.217a4.364 4.364 0 0 0-.348-2.175c-6.922 5.045-14.929 5.784-21.766 3.394v5.955c-3.307 1.174-9.228 4.824-9.184 8.35.217 1.693 1.09 2.284 1.872 2.741"/><path fill="#B5B6BA" d="M130.894 137.162c-7.405 3.739-14.497 6.738-25.423 7.173-14.233-.305-16.452-9.74-9.707-19.61 6.37-9.956 16.455-18.958 32.504-24.567 4.655-1.632 11.494-3.52 18.107-3.59 9.473-.088 18.718 2.872 18.109 11.959-.35 6.957-10.405 16.783-15.713 23.828-2.264 3.1-2.656 5.087 1.217 4.914 14.047-.913 26.816-5.783 38.656-10.828-8.008 5.436-49.408 25.913-49.578 11.959.042-1.785.869-3.655 2.218-5.653 1.306-2 3.136-4.089 5.008-6.219 2.829-3.218 9.832-10.932 12.184-15.524 3.961-8.738-4.9-9.174-12.58-11.87l-3.266 1.867 2.005 1.871c-11.188 1.868-16.713 3.696-30.469 8.435l1.568 4.002-4.701 4.65c-.131-.13-.828-.173-2.264-1.086v7.695c-6.141 2.696-11.433 7.347-7.314 11.393.434.348 1.045.697 1.437.739 7.514 4.262 28.032-1.522 27.991-1.522m-77.131 21.459-2.684-6.102-2.842 6.102h5.526Zm-8.554 6.689h-5.632l8.69-16.765h6.234l8.293 16.765h-6.256l-1.263-3.021h-8.712l-1.354 3.021Zm18.408-16.765h5.39v16.764h-5.39v-16.764Zm8.684 5.077h5.39v11.67h-5.39v-11.67Zm0-5.057h5.39v3.421h-5.39v-3.421Zm19.265 10.935c0-1.031-.245-1.843-.728-2.439-.484-.595-1.143-.892-1.96-.892-.895 0-1.58.287-2.053.86-.474.572-.712 1.403-.712 2.496 0 1.031.24 1.832.718 2.405.479.572 1.144.856 2.001.856.841 0 1.511-.293 2.006-.886.495-.592.745-1.39.745-2.398m-10.83-10.972h5.404v6.755a6.443 6.443 0 0 1 2.16-1.488 6.762 6.762 0 0 1 2.612-.496c1.841 0 3.32.587 4.438 1.762 1.117 1.174 1.676 2.733 1.676 4.674 0 1.767-.55 3.181-1.653 4.247-1.103 1.065-2.564 1.599-4.41 1.599-1.006 0-1.92-.183-2.74-.55a5.744 5.744 0 0 1-2.1-1.62l-.045 1.057c-.03.318-.082.594-.164.829h-5.403c.06-.219.108-.495.142-.821.035-.326.053-.706.053-1.13V148.55m28.142 11.702c-1.748 0-2.94.114-3.574.327-.633.212-.952.624-.952 1.191 0 .385.155.685.462.9.307.216.743.323 1.307.323.919 0 1.609-.212 2.066-.639.457-.428.691-1.072.691-1.934v-.182.014Zm.114 3.333a4.588 4.588 0 0 1-2.002 1.501c-.82.327-1.797.49-2.979.49-1.663 0-2.94-.294-3.834-.886a2.846 2.846 0 0 1-1.342-2.513c0-1.476.77-2.545 2.312-3.197 1.542-.653 4.126-.979 7.752-1.028 0-.023.005-.065.012-.131.006-.047.009-.094.009-.142 0-.597-.163-1.044-.539-1.337-.375-.294-.898-.441-1.621-.441-.65 0-1.152.108-1.503.323a1.321 1.321 0 0 0-.622.969h-4.989c.023-1.295.654-2.259 1.846-2.891 1.192-.631 3.046-.949 5.521-.949 2.375 0 4.143.368 5.303 1.109 1.16.741 1.741 1.86 1.741 3.369v5.952c-.004.299.013.597.051.894.031.218.09.431.176.633h-5.006a4.696 4.696 0 0 1-.219-.842 5.616 5.616 0 0 1-.068-.881l.001-.002Zm18.921-4.069c0-1.031-.245-1.843-.729-2.439-.483-.595-1.143-.892-1.979-.892-.892 0-1.578.287-2.05.86-.472.572-.712 1.403-.712 2.496 0 1.031.238 1.832.715 2.405.477.572 1.144.856 2.003.856.841 0 1.509-.293 2.005-.886.497-.592.745-1.39.745-2.398m-10.829-10.972h5.39v6.755a6.682 6.682 0 0 1 2.156-1.488 6.765 6.765 0 0 1 2.614-.496c1.839 0 3.319.587 4.437 1.762 1.119 1.174 1.676 2.733 1.676 4.674 0 1.767-.552 3.181-1.654 4.247-1.103 1.065-2.565 1.599-4.41 1.599-1.007 0-1.92-.183-2.738-.55a5.726 5.726 0 0 1-2.102-1.62l-.046 1.057c-.022.28-.071.558-.147.829h-5.39c.069-.27.117-.544.142-.821.033-.331.049-.706.049-1.13V148.55m28.151 11.702c-1.748 0-2.94.114-3.593.327-.654.212-.953.624-.953 1.191 0 .385.155.685.463.9.307.216.743.323 1.306.323.918 0 1.609-.212 2.07-.639.46-.428.686-1.072.686-1.934l.021-.168Zm.114 3.333a4.585 4.585 0 0 1-2.001 1.501c-.82.327-1.796.49-2.98.49-1.662 0-2.94-.294-3.834-.886a2.842 2.842 0 0 1-1.339-2.513c0-1.476.771-2.545 2.311-3.197 1.54-.653 4.129-.979 7.753-1.028 0-.023.005-.065.012-.131l.01-.142c0-.597-.164-1.044-.539-1.337-.376-.294-.902-.441-1.621-.441-.653 0-1.153.108-1.502.323-.35.215-.556.538-.626.969h-4.985c.023-1.295.653-2.259 1.841-2.891 1.187-.631 3.048-.949 5.521-.949 2.374 0 4.142.368 5.303 1.109 1.161.741 1.741 1.86 1.741 3.369v5.952c-.004.299.012.597.049.894.032.217.091.43.177.633h-5.008a4.613 4.613 0 0 1-.219-.842 5.9 5.9 0 0 1-.069-.881l.005-.002Zm21.846-4.796v-1.958h7.061v6.167c-1.085.862-2.202 1.509-3.353 1.945a9.934 9.934 0 0 1-3.548.652c-1.636 0-3.123-.349-4.462-1.05a6.96 6.96 0 0 1-3.03-3.038c-.686-1.325-1.022-2.806-1.022-4.443a10.244 10.244 0 0 1 1.019-4.535c.681-1.403 1.633-2.447 2.927-3.129 1.293-.682 2.739-1.022 4.397-1.022 1.205 0 2.296.196 3.266.588.97.391 1.74.934 2.293 1.631.554.697.974 1.607 1.258 2.73l-1.997.544c-.25-.848-.562-1.517-.931-2.001-.37-.485-.899-.878-1.59-1.17-.691-.292-1.448-.441-2.291-.441-1.006 0-1.875.154-2.609.46-.733.307-1.326.713-1.777 1.214a5.602 5.602 0 0 0-1.05 1.632 8.774 8.774 0 0 0-.634 3.361c0 1.489.253 2.734.765 3.752a4.892 4.892 0 0 0 2.231 2.232 6.87 6.87 0 0 0 3.105.729c.958 0 1.907-.188 2.793-.553.906-.369 1.596-.762 2.066-1.181v-3.149h-4.892m10.034 6.552v-12.07h1.845v1.833c.49-.855.909-1.42 1.307-1.691.399-.27.84-.407 1.318-.407.693 0 1.397.217 2.112.652l-.715 1.896a2.963 2.963 0 0 0-1.501-.439 1.966 1.966 0 0 0-1.209.401c-.354.271-.609.645-.763 1.12a7.902 7.902 0 0 0-.341 2.386v6.318h-2.058m9.503-6.027c0 1.545.338 2.702 1.012 3.47a3.233 3.233 0 0 0 2.545 1.155 3.209 3.209 0 0 0 2.532-1.16c.674-.773 1.009-1.951 1.009-3.534 0-1.492-.336-2.623-1.016-3.393-.679-.77-1.519-1.155-2.527-1.155-1.022 0-1.87.383-2.544 1.148-.675.765-1.013 1.921-1.013 3.467m-2.114-.003c0-2.235.624-3.886 1.869-4.963 1.037-.892 2.306-1.338 3.799-1.338 1.663 0 3.022.542 4.075 1.628 1.054 1.087 1.58 2.588 1.58 4.503 0 1.554-.234 2.774-.699 3.661a4.945 4.945 0 0 1-2.037 2.072 5.957 5.957 0 0 1-2.919.738c-1.692 0-3.059-.542-4.083-1.623-1.024-1.082-1.568-2.644-1.568-4.678m21.952 6.033v-1.785a4.406 4.406 0 0 1-3.83 2.053 4.837 4.837 0 0 1-1.993-.411c-.614-.274-1.078-.614-1.375-1.028-.298-.415-.51-.917-.631-1.517-.082-.402-.126-1.038-.126-1.909v-7.473h2.058v6.686c0 1.067.041 1.787.124 2.157.128.539.402.959.817 1.266.415.307.934.46 1.545.46a3.243 3.243 0 0 0 1.727-.489 2.616 2.616 0 0 0 1.14-1.281c.222-.542.336-1.325.336-2.357v-6.458h2.053v12.07h-1.845m7.252-5.947c0 1.553.326 2.702.942 3.426.616.725 1.385 1.115 2.28 1.115.908 0 1.686-.385 2.333-1.155.646-.771.97-1.958.97-3.59 0-1.538-.315-2.692-.947-3.455-.633-.764-1.389-1.149-2.264-1.149-.876 0-1.64.408-2.311 1.224-.672.816-1.003 1.998-1.003 3.553m-1.846 10.584v-16.691h1.862v1.57c.441-.613.938-1.072 1.493-1.377.555-.305 1.225-.457 2.009-.457 1.029 0 1.96.261 2.731.793.771.532 1.383 1.278 1.785 2.243.402.966.604 2.023.604 3.174 0 1.233-.222 2.346-.666 3.333-.444.987-1.088 1.745-1.931 2.271-.842.525-1.734.789-2.662.789-.683 0-1.294-.143-1.837-.429a4.1 4.1 0 0 1-1.333-1.086v5.867h-2.058"/></svg>