<svg xmlns="http://www.w3.org/2000/svg" width="262" height="262" fill="none"><path fill="#B5B6BA" d="M131.5 189c15.359 0 29.798-5.981 40.658-16.842C183.019 161.298 189 146.859 189 131.5c0-15.359-5.981-29.798-16.842-40.658C161.298 79.982 146.859 74 131.5 74 99.794 74 74 99.794 74 131.5c0 15.359 5.981 29.798 16.842 40.658C101.702 183.019 116.14 189 131.5 189Z"/><path fill="#EEEEEF" d="M75.988 131.5c0-14.827 5.775-28.767 16.26-39.252 10.484-10.485 24.424-16.259 39.251-16.259 14.827 0 28.767 5.774 39.251 16.26 10.485 10.484 16.259 24.423 16.259 39.251 0 30.608-24.902 55.51-55.51 55.51-14.827 0-28.767-5.774-39.252-16.259-10.484-10.484-16.259-24.424-16.259-39.251Z"/><path fill="#B5B6BA" d="M131.5 78.277c-29.394 0-53.223 23.829-53.223 53.223s23.829 53.223 53.223 53.223 53.223-23.829 53.223-53.223-23.829-53.223-53.223-53.223Z"/><path fill="#EEEEEF" d="M131.501 165.497c-18.776 0-33.997-15.221-33.997-33.997s15.221-33.997 33.997-33.997c18.775 0 33.997 15.221 33.997 33.997s-15.221 33.997-33.997 33.997Z"/><path fill="#B5B6BA" d="M99.691 131.5h31.81V99.69c-17.568 0-31.81 14.243-31.81 31.81Zm31.81 0v31.81c17.568 0 31.81-14.242 31.81-31.81h-31.81Z"/><path fill="#EEEEEF" d="M106.516 99.063c-1.127-1.096-2.869-1.426-4.505-.412.313-.81.185-1.636.019-2.091-.704-1.285-.95-1.446-1.531-1.933-1.88-1.577-3.858-.23-5.272 1.455l-6.836 8.147 10.745 9.017 7.209-8.591c1.647-1.963 1.902-3.909.171-5.593Zm26.764-3.871 3.69-9.782v9.782h2.805v-14.01h-4.214l-3.833 10.03h.04l-3.833-10.03h-4.214v14.01h2.804V85.41l3.691 9.782h3.064Zm37.709 5.828-5.281 7.476 8.186-3.887 2.168 2.677-12.885 6.246-2.544-3.167 5.068-7.41-.03-.037-8.302 3.416-2.569-3.146 8.789-11.305 2.167 2.676-5.503 7.2 8.41-3.61 2.326 2.871Z"/><path fill="#B5B6BA" d="M96.723 98.099c.476-.567 1.55-.544 2.242.036.76.638.762 1.542.252 2.15l-4.06 4.838-2.54-2.131 4.106-4.893Zm7.223 5.707-4.28 5.1-2.684-2.252 4.314-5.142c.488-.58 1.574-.749 2.307-.134.829.695.911 1.751.343 2.428Z"/></svg>