<svg xmlns="http://www.w3.org/2000/svg" width="262" height="262" fill="none"><path fill="#B5B6BA" d="M184.713 118.152V96.283h4.559v18.799c-1.262.621-2.981 1.793-4.559 3.07Zm-7.924 6.588c1.402-1.656 2.84-3.312 4.558-4.726v-23.73h-4.558v28.456Zm-52.809 17.384c0 5.829 2.349 11.383 6.662 15.625 4.278 4.208 9.924 6.554 15.885 6.554 2.525 0 5.119-.517 6.943-1.414v-4.484c-2.139.897-4.734 1.414-6.943 1.414-9.748 0-17.954-8.071-17.954-17.66v-4.036c0-9.589 8.241-17.66 17.954-17.66 4.839 0 9.362 1.828 12.729 5.139 3.366 3.311 5.225 7.761 5.225 12.521v26.214h4.558v-27.076c-.28-5.726-2.77-11.073-6.978-15.074-4.243-4.001-9.748-6.208-15.534-6.208-5.926 0-11.572 2.311-15.885 6.553-4.278 4.208-6.662 9.762-6.662 15.625v3.967Zm68.238-10.762c2.068-2.035 4.733-3.173 7.363-3.173 5.646 0 10.029 4.346 10.029 9.865v4.036c0 5.553-4.418 9.865-10.029 9.865-2.735 0-5.365-1.484-7.434-4.14-1.823-2.345-3.015-5.553-3.191-8.416l-3.681 4.484c.736 3.381 2.524 6.657 5.084 8.934 2.63 2.345 5.926 3.656 9.222 3.656 8.065 0 14.623-6.45 14.623-14.349v-4.036c0-3.759-1.543-7.347-4.348-10.071-2.806-2.76-6.452-4.278-10.275-4.278-2.419 0-6.241.863-10.8 4.898-1.227 1.208-4.103 4.036-5.856 6.037-2.945 3.173-7.188 7.899-10.835 12.693v7.002c4.032-5.105 6.347-7.968 10.169-12.279 3.366-3.933 7.574-8.658 9.959-10.728Zm-107.722-8.45V117.6c-4.138-2.173-8.627-3.139-14.588-3.139-6.101 0-11.887 2.207-16.27 6.174-4.419 4.001-6.838 9.244-6.838 14.832v1.449c0 11.589 9.433 21.006 21.074 21.006 9.433 0 13.325-3.036 14.307-4.001v-13.487H66.752v4.484h11.151v6.761h-.035c-1.438.551-4.418 1.724-9.994 1.724-4.418 0-8.59-1.69-11.676-4.794-3.121-3.105-4.804-7.244-4.804-11.728v-1.448c0-8.934 8.485-16.523 18.55-16.523 6.907.035 11.045 1.173 14.552 4.002Zm33.242 5.277c1.718 0 3.191.276 4.383.828a25.88 25.88 0 0 1 1.999-3.932c-1.227-.863-4.208-1.415-6.382-1.415-8.311 0-14.587 6.175-14.587 14.384v26.214h4.558v-26.214c0-5.795 4.103-9.865 10.029-9.865Zm-78.863 7.278v1.449c0 7.795 3.016 15.039 8.45 20.454 5.436 5.381 12.73 8.347 20.514 8.347 6.277 0 11.817-1.38 16.516-4.139 3.858-2.276 5.576-4.553 5.716-4.76v-24.145H66.752v4.484h18.76v18.316c-2.209 2.173-7.433 5.795-17.638 5.795-6.662 0-12.834-2.518-17.392-7.071-4.524-4.519-7.013-10.659-7.013-17.247v-1.449c0-6.243 2.84-12.451 7.82-17.039a27.436 27.436 0 0 1 18.654-7.278c6.487 0 10.976.966 14.588 3.139v-5.071c-3.788-1.586-8.311-2.276-14.623-2.276-16.831 0-31.033 13.038-31.033 28.491Zm122.204 28.801v-26.214c0-8.071-6.417-14.384-14.622-14.384-3.822 0-7.469 1.518-10.275 4.278-2.805 2.759-4.348 6.346-4.348 10.071v4.036c0 7.795 6.698 14.349 14.588 14.349 2.174 0 5.119-.517 6.943-2v-4.657c-1.789 1.414-4.348 2.242-6.943 2.242-5.611 0-10.029-4.346-10.029-9.865v-4.036c0-5.553 4.418-9.864 10.029-9.864 5.645 0 10.028 4.346 10.028 9.864v26.215h4.629v-.035Zm-43.341-43.874c3.086 0 5.786.655 8.205 2 1.122-1.414 2.28-2.518 3.156-3.38-2.56-1.932-6.908-3.104-11.326-3.104-6.347 0-12.098 2.242-16.2 6.346-4.068 4.036-6.312 9.658-6.312 15.832v26.215h4.558v-26.215c-.035-10.416 7.329-17.694 17.919-17.694Zm97.728 2.069c-4.278-4.208-9.923-6.553-15.885-6.553-4.348 0-8.696 1.586-11.116 3.173-4.979 3.242-9.046 6.795-16.41 16.143v6.726c6.241-8.003 12.132-14.28 16.621-17.764 2.945-2.311 7.118-3.76 10.905-3.76 9.749 0 17.954 8.106 17.954 17.66v4.036c0 4.726-1.894 9.175-5.33 12.521a18.019 18.019 0 0 1-12.624 5.139c-7.995 0-15.043-5.415-16.936-12.762l-3.226 3.829c2.349 7.726 10.835 13.417 20.162 13.417 5.962 0 11.572-2.345 15.885-6.553 4.278-4.243 6.663-9.762 6.663-15.625v-4.036c0-5.829-2.385-11.383-6.663-15.591Z"/></svg>