<svg xmlns="http://www.w3.org/2000/svg" width="321" height="81" fill="none"><path fill="#fff" d="M86.12 17.46C71.874 17.46 60 23.434 60 41.454c0 14.276 7.984 23.265 26.488 23.265 21.78 0 23.177-14.177 23.177-14.177H99.111s-2.263 7.634-13.267 7.634c-8.962 0-15.408-5.983-15.408-14.368h40.333v-5.262c0-8.296-5.33-21.084-24.648-21.084Zm-.368 6.726c8.531 0 14.347 5.164 14.347 12.905h-29.43c0-8.218 7.592-12.905 15.083-12.905Z"/><path fill="#fff" d="M110.76.012v55.657c0 3.159-.229 7.595-.229 7.595h10.066s.362-3.186.362-6.098c0 0 4.973 7.689 18.496 7.689 14.239 0 23.912-9.77 23.912-23.765 0-13.021-8.884-23.493-23.889-23.493-14.051 0-18.418 7.497-18.418 7.497V.012h-10.3Zm26.12 24.47c9.67 0 15.819 7.091 15.819 16.608 0 10.205-7.102 16.88-15.75 16.88-10.321 0-15.889-7.963-15.889-16.79 0-8.225 4.996-16.699 15.82-16.699Z"/><path fill="#fff" d="M188.385 17.46c-21.434 0-22.808 11.598-22.808 13.451h10.668s.56-6.77 11.405-6.77c7.047 0 12.508 3.188 12.508 9.315v2.18H187.65c-16.606 0-25.384 4.801-25.384 14.542 0 9.586 8.111 14.802 19.072 14.802 14.939 0 19.752-8.157 19.752-8.157 0 3.245.252 6.442.252 6.442h9.484s-.367-3.963-.367-6.498V34.853c0-14.369-11.729-17.392-22.074-17.392Zm11.773 24.72v2.908c0 3.793-2.369 13.223-16.314 13.223-7.636 0-10.91-3.766-10.91-8.134 0-7.946 11.025-7.997 27.224-7.997Z"/><path fill="#fff" d="M204.715 19.28h12.002l17.225 34.1 17.186-34.1h10.873l-31.304 60.708h-11.405l9.033-16.923-23.61-43.785Z"/></svg>